<svg width="25" height="24" viewBox="0 0 25 24" fill="none" xmlns="http://www.w3.org/2000/svg">
<path d="M11.2841 8.21951C11.4246 8.07882 11.6152 7.99969 11.8141 7.99951H12.1941C12.3925 8.00182 12.5823 8.08063 12.7241 8.21951L17.8541 13.3595C17.9487 13.4534 18.002 13.5812 18.002 13.7145C18.002 13.8478 17.9487 13.9756 17.8541 14.0695L17.1441 14.7795C17.0519 14.8736 16.9257 14.9266 16.7941 14.9266C16.6624 14.9266 16.5362 14.8736 16.4441 14.7795L12.0041 10.3295L7.56405 14.7795C7.47017 14.8742 7.34237 14.9274 7.20905 14.9274C7.07574 14.9274 6.94794 14.8742 6.85405 14.7795L6.15405 14.0695C6.0594 13.9756 6.00616 13.8478 6.00616 13.7145C6.00616 13.5812 6.0594 13.4534 6.15405 13.3595L11.2841 8.21951Z" fill="#18191F"/>
</svg>
