<svg width="16" height="16" viewBox="0 0 16 16" fill="none" xmlns="http://www.w3.org/2000/svg">
<g clip-path="url(#clip0_213_6315)">
<path d="M0.879883 2.31982H15.2799V3.27982H0.879883V2.31982Z" fill="#FF4A6C"/>
<path d="M3.28031 3.27982V10.9598H12.8803V3.27982H3.28031ZM2.32031 2.31982H13.8403V11.4398C13.8403 11.5671 13.7897 11.6892 13.6997 11.7792C13.6097 11.8693 13.4876 11.9198 13.3603 11.9198H2.80031C2.67301 11.9198 2.55092 11.8693 2.4609 11.7792C2.37088 11.6892 2.32031 11.5671 2.32031 11.4398V2.31982Z" fill="#FF4A6C"/>
<path d="M5.23284 14.7999H4.125L6.2946 11.0415L7.12596 11.5215L5.23284 14.7999ZM12.0412 14.7999H10.9333L9.0402 11.5215L9.87156 11.0415L12.0412 14.7999Z" fill="#FF4A6C"/>
</g>
<defs>
<clipPath id="clip0_213_6315">
<rect width="15.36" height="15.36" fill="white" transform="translate(0.400391 0.399902)"/>
</clipPath>
</defs>
</svg>
