<svg width="19" height="19" viewBox="0 0 19 19" fill="none" xmlns="http://www.w3.org/2000/svg">
<g opacity="0.9">
<path d="M18.25 9.49125C18.25 4.66562 14.33 0.75 9.5 0.75C4.67 0.75 0.75 4.66562 0.75 9.49125C0.75 12.1491 1.9575 14.5444 3.8475 16.1522C3.865 16.1697 3.8825 16.1697 3.8825 16.1872C4.04 16.3097 4.1975 16.4322 4.3725 16.5547C4.46 16.6072 4.53 16.6761 4.6175 16.7461C6.06351 17.7265 7.77046 18.2504 9.5175 18.25C11.2645 18.2504 12.9715 17.7265 14.4175 16.7461C14.505 16.6936 14.575 16.6247 14.6625 16.5711C14.82 16.4497 14.995 16.3272 15.1525 16.2047C15.17 16.1872 15.1875 16.1872 15.1875 16.1697C17.0425 14.5433 18.25 12.1491 18.25 9.49125ZM9.5 17.1486C7.855 17.1486 6.35 16.6236 5.1075 15.7497C5.125 15.6097 5.16 15.4708 5.195 15.3308C5.29928 14.9514 5.45221 14.587 5.65 14.2469C5.8425 13.9144 6.07 13.6169 6.35 13.3544C6.6125 13.0919 6.9275 12.848 7.2425 12.6555C7.575 12.463 7.925 12.323 8.31 12.218C8.69799 12.1134 9.09816 12.0608 9.5 12.0616C10.6929 12.0531 11.842 12.5107 12.7025 13.3369C13.105 13.7394 13.42 14.2119 13.6475 14.7533C13.77 15.0683 13.8575 15.4008 13.91 15.7497C12.6185 16.6577 11.0788 17.1461 9.5 17.1486ZM6.8225 9.05484C6.66831 8.7018 6.59076 8.32007 6.595 7.93484C6.595 7.55094 6.665 7.16594 6.8225 6.81594C6.98 6.46594 7.19 6.15203 7.4525 5.88953C7.715 5.62703 8.03 5.41813 8.38 5.26062C8.73 5.10313 9.115 5.03312 9.5 5.03312C9.9025 5.03312 10.27 5.10313 10.62 5.26062C10.97 5.41813 11.285 5.62812 11.5475 5.88953C11.81 6.15203 12.02 6.46703 12.1775 6.81594C12.335 7.16594 12.405 7.55094 12.405 7.93484C12.405 8.33734 12.335 8.70484 12.1775 9.05375C12.0255 9.39857 11.812 9.71286 11.5475 9.98125C11.279 10.2454 10.9647 10.4585 10.62 10.6102C9.89684 10.9073 9.08566 10.9073 8.3625 10.6102C8.01776 10.4585 7.70348 10.2454 7.435 9.98125C7.17011 9.71677 6.96173 9.40122 6.8225 9.05375V9.05484ZM14.9425 14.8583C14.9425 14.8233 14.925 14.8058 14.925 14.7708C14.7529 14.2233 14.4992 13.7048 14.1725 13.233C13.8455 12.7576 13.4436 12.3384 12.9825 11.9916C12.6303 11.7266 12.2486 11.5035 11.845 11.3266C12.0286 11.2054 12.1988 11.065 12.3525 10.9077C12.6134 10.6501 12.8425 10.3622 13.035 10.0502C13.4226 9.41338 13.6227 8.68022 13.6125 7.93484C13.6179 7.38306 13.5107 6.83598 13.2975 6.32703C13.087 5.83664 12.784 5.39139 12.405 5.01562C12.0266 4.64378 11.5813 4.3469 11.0925 4.14062C10.5827 3.92777 10.0349 3.82097 9.4825 3.82672C8.93001 3.82132 8.38221 3.92849 7.8725 4.14172C7.3795 4.34755 6.93309 4.65073 6.56 5.03312C6.18817 5.41111 5.89127 5.85608 5.685 6.34453C5.47177 6.85348 5.36459 7.40056 5.37 7.95234C5.37 8.33734 5.4225 8.70484 5.5275 9.05375C5.6325 9.42125 5.7725 9.75375 5.965 10.0677C6.14 10.3827 6.385 10.6627 6.6475 10.9252C6.805 11.0827 6.98 11.2216 7.1725 11.3441C6.76763 11.5257 6.38579 11.7548 6.035 12.0266C5.58 12.3766 5.1775 12.7955 4.845 13.2505C4.51497 13.7204 4.26102 14.2393 4.0925 14.7883C4.075 14.8233 4.075 14.8583 4.075 14.8758C2.6925 13.4769 1.835 11.5891 1.835 9.49125C1.835 5.27813 5.2825 1.83391 9.5 1.83391C13.7175 1.83391 17.165 5.27813 17.165 9.49125C17.1627 11.5037 16.3636 13.4334 14.9425 14.8583Z" fill="#FF4A6C"/>
</g>
</svg>
