<svg width="100" height="19" viewBox="0 0 100 19" fill="none" xmlns="http://www.w3.org/2000/svg">
<path d="M8.21772 3.16903C8.40687 2.58006 9.24019 2.58006 9.42935 3.16903L10.2353 5.6785C10.4165 6.24262 10.9412 6.62521 11.5337 6.62521H14.1663C14.7809 6.62521 15.0384 7.41019 14.5431 7.77419L12.3934 9.35436C11.921 9.7016 11.7234 10.3119 11.9027 10.8702L12.7191 13.4122C12.9077 13.9997 12.2336 14.4849 11.7364 14.1194L9.6312 12.572C9.15068 12.2188 8.49639 12.2188 8.01586 12.572L5.91067 14.1194C5.41346 14.4849 4.73932 13.9997 4.92801 13.4122L5.74441 10.8702C5.92369 10.3119 5.7261 9.7016 5.25368 9.35436L3.10393 7.77419C2.60871 7.41019 2.86618 6.62521 3.48077 6.62521H6.11338C6.70589 6.62521 7.2306 6.24262 7.41177 5.6785L8.21772 3.16903Z" fill="#6AC6F0" stroke="#6AC6F0" stroke-width="0.727422"/>
<path d="M28.8056 3.16903C28.9948 2.58006 29.8281 2.58006 30.0172 3.16903L30.8232 5.6785C31.0044 6.24262 31.5291 6.62521 32.1216 6.62521H34.7542C35.3688 6.62521 35.6262 7.41019 35.131 7.77419L32.9813 9.35436C32.5089 9.7016 32.3113 10.3119 32.4906 10.8702L33.3069 13.4122C33.4956 13.9997 32.8215 14.4849 32.3243 14.1194L30.2191 12.572C29.7386 12.2188 29.0843 12.2188 28.6038 12.572L26.4986 14.1194C26.0013 14.4849 25.3272 13.9997 25.5159 13.4122L26.3323 10.8702C26.5116 10.3119 26.314 9.7016 25.8416 9.35436L23.6918 7.77419C23.1966 7.41019 23.4541 6.62521 24.0687 6.62521H26.7013C27.2938 6.62521 27.8185 6.24262 27.9997 5.6785L28.8056 3.16903Z" fill="#6AC6F0" stroke="#6AC6F0" stroke-width="0.727422"/>
<path d="M49.3945 3.16903C49.5836 2.58006 50.4169 2.58006 50.6061 3.16903L51.412 5.6785C51.5932 6.24262 52.1179 6.62521 52.7104 6.62521H55.3431C55.9576 6.62521 56.2151 7.41019 55.7199 7.77419L53.5701 9.35436C53.0977 9.7016 52.9001 10.3119 53.0794 10.8702L53.8958 13.4122C54.0845 13.9997 53.4104 14.4849 52.9132 14.1194L50.808 12.572C50.3274 12.2188 49.6731 12.2188 49.1926 12.572L47.0874 14.1194C46.5902 14.4849 45.9161 13.9997 46.1048 13.4122L46.9212 10.8702C47.1004 10.3119 46.9029 9.7016 46.4304 9.35436L44.2807 7.77419C43.7855 7.41019 44.0429 6.62521 44.6575 6.62521H47.2901C47.8826 6.62521 48.4074 6.24262 48.5885 5.6785L49.3945 3.16903Z" fill="#6AC6F0" stroke="#6AC6F0" stroke-width="0.727422"/>
<path d="M90.224 3.05781C90.5212 2.13219 91.8309 2.13219 92.1282 3.05781L92.9341 5.56728C93.067 5.98095 93.4517 6.2615 93.8862 6.2615H96.5188C97.4847 6.2615 97.8894 7.49518 97.1111 8.06725L94.9613 9.64742C94.6149 9.90205 94.47 10.3496 94.6015 10.7589L95.4179 13.301C95.7144 14.2243 94.655 14.9869 93.8735 14.4125L91.7683 12.8651C91.416 12.6061 90.9362 12.6061 90.5838 12.8651L88.4786 14.4125C87.6972 14.9869 86.6377 14.2243 86.9343 13.301L87.7507 10.7589C87.8821 10.3496 87.7372 9.90205 87.3908 9.64742L85.2411 8.06725C84.4628 7.49519 84.8674 6.2615 85.8333 6.2615H88.4659C88.9004 6.2615 89.2852 5.98095 89.418 5.56728L90.224 3.05781Z" fill="#9F9797"/>
<path d="M70.3115 3.07577C70.5006 2.4868 71.3339 2.4868 71.5231 3.07577L72.329 5.58523C72.5102 6.14936 73.0349 6.53195 73.6274 6.53195H76.26C76.8746 6.53195 77.1321 7.31693 76.6369 7.68093L74.4871 9.26109C74.0147 9.60834 73.8171 10.2187 73.9964 10.7769L74.8128 13.3189C75.0015 13.9064 74.3274 14.3916 73.8301 14.0262L71.725 12.4788C71.2444 12.1256 70.5901 12.1256 70.1096 12.4788L68.0044 14.0262C67.5072 14.3916 66.8331 13.9064 67.0218 13.3189L67.8382 10.7769C68.0174 10.2187 67.8198 9.60834 67.3474 9.2611L65.1977 7.68093C64.7025 7.31693 64.9599 6.53195 65.5745 6.53195H68.2071C68.7996 6.53195 69.3243 6.14936 69.5055 5.58523L70.3115 3.07577Z" fill="#6AC6F0" stroke="#6AC6F0" stroke-width="0.727422"/>
<g clip-path="url(#clip0_39_15067)">
<path d="M70.5211 3.07577C70.7103 2.4868 71.5436 2.4868 71.7327 3.07577L72.5445 5.60344C72.7257 6.16756 73.2504 6.55016 73.8429 6.55016H76.4945C77.109 6.55016 77.3665 7.33513 76.8713 7.69913L74.7062 9.29055C74.2338 9.6378 74.0362 10.2481 74.2155 10.8064L75.0378 13.3666C75.2264 13.9541 74.5523 14.4393 74.0551 14.0738L71.9346 12.5152C71.4541 12.162 70.7998 12.162 70.3193 12.5152L68.1987 14.0738C67.7015 14.4393 67.0274 13.9541 67.2161 13.3666L68.0383 10.8064C68.2176 10.2481 68.02 9.6378 67.5476 9.29055L65.3825 7.69914C64.8873 7.33513 65.1448 6.55016 65.7594 6.55016H68.4109C69.0034 6.55016 69.5281 6.16757 69.7093 5.60344L70.5211 3.07577Z" fill="#9F9797" stroke="#9F9797" stroke-width="0.727422"/>
</g>
<defs>
<clipPath id="clip0_39_15067">
<rect width="9" height="18" fill="white" transform="translate(71 0.180664)"/>
</clipPath>
</defs>
</svg>
