<svg width="100" height="18" viewBox="0 0 100 18" fill="none" xmlns="http://www.w3.org/2000/svg">
<path d="M8.21772 3.16952C8.40687 2.58055 9.24019 2.58055 9.42935 3.16952L10.2353 5.67898C10.4165 6.24311 10.9412 6.6257 11.5337 6.6257H14.1663C14.7809 6.6257 15.0384 7.41068 14.5431 7.77468L12.3934 9.35484C11.921 9.70209 11.7234 10.3124 11.9027 10.8706L12.7191 13.4127C12.9077 14.0002 12.2336 14.4854 11.7364 14.1199L9.6312 12.5725C9.15068 12.2193 8.49639 12.2193 8.01586 12.5725L5.91067 14.1199C5.41346 14.4854 4.73932 14.0002 4.92801 13.4127L5.74441 10.8706C5.92369 10.3124 5.7261 9.70209 5.25368 9.35485L3.10393 7.77468C2.60871 7.41068 2.86618 6.6257 3.48077 6.6257H6.11338C6.70589 6.6257 7.2306 6.24311 7.41177 5.67898L8.21772 3.16952Z" fill="#6AC6F0" stroke="#6AC6F0" stroke-width="0.727422"/>
<path d="M28.8056 3.16952C28.9948 2.58055 29.8281 2.58055 30.0172 3.16952L30.8232 5.67898C31.0044 6.24311 31.5291 6.6257 32.1216 6.6257H34.7542C35.3688 6.6257 35.6262 7.41068 35.131 7.77468L32.9813 9.35484C32.5089 9.70209 32.3113 10.3124 32.4906 10.8706L33.3069 13.4127C33.4956 14.0002 32.8215 14.4854 32.3243 14.1199L30.2191 12.5725C29.7386 12.2193 29.0843 12.2193 28.6038 12.5725L26.4986 14.1199C26.0013 14.4854 25.3272 14.0002 25.5159 13.4127L26.3323 10.8706C26.5116 10.3124 26.314 9.70209 25.8416 9.35485L23.6918 7.77468C23.1966 7.41068 23.4541 6.6257 24.0687 6.6257H26.7013C27.2938 6.6257 27.8185 6.24311 27.9997 5.67898L28.8056 3.16952Z" fill="#6AC6F0" stroke="#6AC6F0" stroke-width="0.727422"/>
<path d="M49.3945 3.16952C49.5836 2.58055 50.4169 2.58055 50.6061 3.16952L51.412 5.67898C51.5932 6.24311 52.1179 6.6257 52.7104 6.6257H55.3431C55.9576 6.6257 56.2151 7.41068 55.7199 7.77468L53.5701 9.35484C53.0977 9.70209 52.9001 10.3124 53.0794 10.8706L53.8958 13.4127C54.0845 14.0002 53.4104 14.4854 52.9132 14.1199L50.808 12.5725C50.3274 12.2193 49.6731 12.2193 49.1926 12.5725L47.0874 14.1199C46.5902 14.4854 45.9161 14.0002 46.1048 13.4127L46.9212 10.8706C47.1004 10.3124 46.9029 9.70209 46.4304 9.35485L44.2807 7.77468C43.7855 7.41068 44.0429 6.6257 44.6575 6.6257H47.2901C47.8826 6.6257 48.4074 6.24311 48.5885 5.67898L49.3945 3.16952Z" fill="#6AC6F0" stroke="#6AC6F0" stroke-width="0.727422"/>
<path d="M90.224 3.0583C90.5212 2.13267 91.8309 2.13267 92.1282 3.0583L92.9341 5.56777C93.067 5.98144 93.4517 6.26199 93.8862 6.26199H96.5188C97.4847 6.26199 97.8894 7.49567 97.1111 8.06774L94.9613 9.6479C94.6149 9.90253 94.47 10.3501 94.6015 10.7594L95.4179 13.3014C95.7144 14.2248 94.655 14.9874 93.8735 14.413L91.7683 12.8656C91.416 12.6066 90.9362 12.6066 90.5838 12.8656L88.4786 14.413C87.6972 14.9874 86.6377 14.2248 86.9343 13.3014L87.7507 10.7594C87.8821 10.3501 87.7372 9.90254 87.3908 9.6479L85.2411 8.06774C84.4628 7.49567 84.8674 6.26199 85.8333 6.26199H88.4659C88.9004 6.26199 89.2852 5.98144 89.418 5.56777L90.224 3.0583Z" fill="#9F9797"/>
<path d="M70.3115 3.07577C70.5006 2.4868 71.3339 2.4868 71.5231 3.07577L72.329 5.58523C72.5102 6.14936 73.0349 6.53195 73.6274 6.53195H76.26C76.8746 6.53195 77.1321 7.31693 76.6369 7.68093L74.4871 9.26109C74.0147 9.60834 73.8171 10.2187 73.9964 10.7769L74.8128 13.3189C75.0015 13.9064 74.3274 14.3916 73.8301 14.0262L71.725 12.4788C71.2444 12.1256 70.5901 12.1256 70.1096 12.4788L68.0044 14.0262C67.5072 14.3916 66.8331 13.9064 67.0218 13.3189L67.8382 10.7769C68.0174 10.2187 67.8198 9.60834 67.3474 9.2611L65.1977 7.68093C64.7025 7.31693 64.9599 6.53195 65.5745 6.53195H68.2071C68.7996 6.53195 69.3243 6.14936 69.5055 5.58523L70.3115 3.07577Z" fill="#6AC6F0" stroke="#6AC6F0" stroke-width="0.727422"/>
</svg>
