<svg width="52" height="52" viewBox="0 0 52 52" fill="none" xmlns="http://www.w3.org/2000/svg">
<g opacity="0.9">
<g clip-path="url(#clip0_39_15485)">
<path d="M14.9023 17.3184H39.0678V18.9294H14.9023V17.3184Z" fill="#00AFFF"/>
<path d="M18.9294 18.9294V31.8176H35.0397V18.9294H18.9294ZM17.3184 17.3184H36.6507V32.6232C36.6507 32.8368 36.5659 33.0417 36.4148 33.1927C36.2637 33.3438 36.0589 33.4287 35.8452 33.4287H18.1239C17.9102 33.4287 17.7054 33.3438 17.5543 33.1927C17.4032 33.0417 17.3184 32.8368 17.3184 32.6232V17.3184Z" fill="#00AFFF"/>
<path d="M22.2058 38.2618H20.3467L23.9876 31.9546L25.3828 32.7601L22.2058 38.2618ZM33.6312 38.2618H31.7721L28.5952 32.7601L29.9903 31.9546L33.6312 38.2618Z" fill="#00AFFF"/>
</g>
</g>
<defs>
<clipPath id="clip0_39_15485">
<rect width="25.7765" height="25.7765" fill="white" transform="translate(14.0967 14.0967)"/>
</clipPath>
</defs>
</svg>
