<svg width="52" height="53" viewBox="0 0 52 53" fill="none" xmlns="http://www.w3.org/2000/svg">
<g opacity="0.9">
<path d="M38.9349 26.5673C38.9349 19.4098 33.1207 13.6021 25.9567 13.6021C18.7927 13.6021 12.9785 19.4098 12.9785 26.5673C12.9785 30.5094 14.7695 34.0622 17.5728 36.4469C17.5988 36.4729 17.6247 36.4729 17.6247 36.4988C17.8583 36.6805 18.0919 36.8622 18.3515 37.0439C18.4813 37.1218 18.5851 37.224 18.7149 37.3278C20.8596 38.782 23.3914 39.559 25.9827 39.5584C28.5739 39.559 31.1057 38.782 33.2504 37.3278C33.3802 37.2499 33.4841 37.1477 33.6138 37.0682C33.8474 36.8882 34.107 36.7065 34.3406 36.5248C34.3666 36.4988 34.3925 36.4988 34.3925 36.4729C37.1439 34.0605 38.9349 30.5094 38.9349 26.5673ZM25.9567 37.9248C23.5168 37.9248 21.2846 37.1461 19.4417 35.8499C19.4676 35.6423 19.5195 35.4362 19.5714 35.2286C19.7261 34.6658 19.9529 34.1254 20.2463 33.6209C20.5318 33.1277 20.8693 32.6865 21.2846 32.2971C21.6739 31.9078 22.1411 31.546 22.6083 31.2605C23.1015 30.975 23.6206 30.7673 24.1917 30.6116C24.7672 30.4565 25.3607 30.3785 25.9567 30.3796C27.726 30.3671 29.4304 31.0458 30.7067 32.2712C31.3037 32.8682 31.7709 33.569 32.1084 34.372C32.2901 34.8392 32.4198 35.3324 32.4977 35.8499C30.5821 37.1967 28.2983 37.9211 25.9567 37.9248ZM21.9854 25.92C21.7567 25.3963 21.6417 24.8301 21.6479 24.2588C21.6479 23.6893 21.7518 23.1183 21.9854 22.5992C22.219 22.0801 22.5305 21.6145 22.9198 21.2251C23.3092 20.8358 23.7764 20.5259 24.2955 20.2923C24.8146 20.0587 25.3857 19.9549 25.9567 19.9549C26.5537 19.9549 27.0988 20.0587 27.6179 20.2923C28.137 20.5259 28.6043 20.8374 28.9936 21.2251C29.3829 21.6145 29.6944 22.0817 29.928 22.5992C30.1616 23.1183 30.2655 23.6893 30.2655 24.2588C30.2655 24.8558 30.1616 25.4008 29.928 25.9184C29.7026 26.4298 29.3859 26.896 28.9936 27.294C28.5954 27.6858 28.1292 28.0019 27.6179 28.2268C26.5453 28.6676 25.3421 28.6676 24.2695 28.2268C23.7582 28.0019 23.2921 27.6858 22.8939 27.294C22.501 26.9018 22.1919 26.4337 21.9854 25.9184V25.92ZM34.0291 34.5278C34.0291 34.4758 34.0032 34.4499 34.0032 34.398C33.7479 33.5859 33.3716 32.8169 32.8871 32.1171C32.402 31.412 31.806 30.7902 31.122 30.2758C30.5997 29.8828 30.0335 29.5518 29.4349 29.2894C29.7072 29.1098 29.9596 28.9015 30.1876 28.6681C30.5746 28.2861 30.9144 27.8591 31.1999 27.3962C31.7748 26.4518 32.0716 25.3643 32.0564 24.2588C32.0645 23.4404 31.9055 22.6289 31.5892 21.874C31.277 21.1467 30.8275 20.4863 30.2655 19.9289C29.7042 19.3774 29.0437 18.937 28.3187 18.6311C27.5626 18.3154 26.7501 18.157 25.9307 18.1655C25.1113 18.1575 24.2988 18.3165 23.5428 18.6327C22.8115 18.938 22.1494 19.3877 21.596 19.9549C21.0445 20.5155 20.6042 21.1755 20.2982 21.9C19.9819 22.6549 19.823 23.4663 19.831 24.2847C19.831 24.8558 19.9089 25.4008 20.0646 25.9184C20.2203 26.4634 20.428 26.9566 20.7135 27.4222C20.9731 27.8894 21.3365 28.3047 21.7258 28.6941C21.9594 28.9277 22.219 29.1337 22.5045 29.3154C21.904 29.5848 21.3376 29.9246 20.8173 30.3277C20.1425 30.8468 19.5455 31.4681 19.0523 32.143C18.5628 32.84 18.1861 33.6097 17.9362 34.4239C17.9102 34.4758 17.9102 34.5278 17.9102 34.5537C15.8597 32.4788 14.5878 29.6788 14.5878 26.5673C14.5878 20.3183 19.7012 15.2097 25.9567 15.2097C32.2122 15.2097 37.3256 20.3183 37.3256 26.5673C37.3222 29.5522 36.137 32.4143 34.0291 34.5278Z" fill="#00AFFF"/>
</g>
</svg>
