<svg width="26" height="26" viewBox="0 0 26 26" fill="none" xmlns="http://www.w3.org/2000/svg">
<path d="M12.3516 4.21094H13.8164C13.9466 4.21094 14.0117 4.27604 14.0117 4.40625V21.5938C14.0117 21.724 13.9466 21.7891 13.8164 21.7891H12.3516C12.2214 21.7891 12.1562 21.724 12.1562 21.5938V4.40625C12.1562 4.27604 12.2214 4.21094 12.3516 4.21094Z" fill="#828282"/>
<path d="M4.88086 12.0723H21.2871C21.4173 12.0723 21.4824 12.1374 21.4824 12.2676V13.7324C21.4824 13.8626 21.4173 13.9277 21.2871 13.9277H4.88086C4.75065 13.9277 4.68555 13.8626 4.68555 13.7324V12.2676C4.68555 12.1374 4.75065 12.0723 4.88086 12.0723Z" fill="#828282"/>
</svg>
