<svg width="52" height="53" viewBox="0 0 52 53" fill="none" xmlns="http://www.w3.org/2000/svg">
<g opacity="0.8">
<path d="M32.4452 38.1244H19.467C19.0369 38.124 18.6245 37.9529 18.3204 37.6488C18.0162 37.3447 17.8452 36.9323 17.8447 36.5022V17.0349C17.8452 16.6047 18.0162 16.1924 18.3204 15.8882C18.6245 15.5841 19.0369 15.413 19.467 15.4126H32.4452C32.8753 15.413 33.2877 15.5841 33.5918 15.8882C33.896 16.1924 34.067 16.6047 34.0675 17.0349V30.5143L30.0118 28.4865L25.9561 30.5143V17.0349H19.467V36.5022H32.4452V33.2576H34.0675V36.5022C34.0668 36.9322 33.8957 37.3445 33.5916 37.6486C33.2875 37.9527 32.8752 38.1238 32.4452 38.1244ZM30.0118 26.6728L32.4452 27.8895V17.0349H27.5784V27.8895L30.0118 26.6728Z" fill="#00AFFF"/>
</g>
</svg>
