<svg width="29" height="29" viewBox="0 0 29 29" fill="none" xmlns="http://www.w3.org/2000/svg">
<path d="M12.7852 4.32275H12.7852C11.5082 4.32302 10.2501 4.63081 9.11725 5.2201C7.98438 5.80939 7.01009 6.66284 6.27679 7.70827C5.54349 8.75371 5.07275 9.96036 4.90438 11.2262C4.73602 12.492 4.87498 13.7798 5.30951 14.9805C5.74404 16.1813 6.46136 17.2598 7.40081 18.1247C8.34025 18.9896 9.47417 19.6156 10.7067 19.9496C11.9392 20.2837 13.234 20.316 14.4816 20.0438C15.6548 19.7879 16.7537 19.2699 17.6967 18.5297L23.3155 24.1498L23.3245 24.1589L23.3344 24.167L23.4324 24.2468L23.4398 24.2528L23.4477 24.2582C23.6428 24.3938 23.8816 24.4513 24.117 24.4195C24.3524 24.3877 24.5673 24.2688 24.7194 24.0864C24.8716 23.904 24.9499 23.6712 24.9389 23.4339C24.9279 23.1966 24.8284 22.9721 24.6601 22.8045L19.0404 17.1861C19.925 16.0597 20.4899 14.714 20.6733 13.2907C20.8664 11.7918 20.6284 10.2688 19.987 8.90032C19.3457 7.5318 18.3277 6.37438 17.0522 5.56366C15.7767 4.75294 14.2966 4.3225 12.7852 4.32275ZM8.50618 7.99555C9.64106 6.86067 11.1803 6.2231 12.7853 6.2231C14.3902 6.2231 15.9295 6.86067 17.0643 7.99555C18.1992 9.13043 18.8368 10.6697 18.8368 12.2746C18.8368 13.8796 18.1992 15.4188 17.0643 16.5537C15.9295 17.6886 14.3902 18.3262 12.7853 18.3262C11.1803 18.3262 9.64107 17.6886 8.50618 16.5537C7.3713 15.4188 6.73373 13.8796 6.73373 12.2746C6.73373 10.6697 7.3713 9.13043 8.50618 7.99555Z" fill="white" stroke="white" stroke-width="0.5"/>
</svg>
