<svg width="24" height="24" viewBox="0 0 24 24" fill="none" xmlns="http://www.w3.org/2000/svg">
<path d="M8.21951 12.7202C8.07882 12.5796 7.99969 12.389 7.99951 12.1902V11.8102C8.00182 11.6117 8.08063 11.4219 8.21951 11.2802L13.3595 6.15016C13.4534 6.0555 13.5812 6.00226 13.7145 6.00226C13.8478 6.00226 13.9756 6.0555 14.0695 6.15016L14.7795 6.86016C14.8736 6.95232 14.9266 7.07847 14.9266 7.21016C14.9266 7.34185 14.8736 7.46799 14.7795 7.56016L10.3295 12.0002L14.7795 16.4402C14.8742 16.534 14.9274 16.6618 14.9274 16.7952C14.9274 16.9285 14.8742 17.0563 14.7795 17.1502L14.0695 17.8502C13.9756 17.9448 13.8478 17.9981 13.7145 17.9981C13.5812 17.9981 13.4534 17.9448 13.3595 17.8502L8.21951 12.7202Z" fill="#F67227"/>
</svg>
