<svg width="26" height="22" viewBox="0 0 26 22" fill="none" xmlns="http://www.w3.org/2000/svg">
<g filter="url(#filter0_d_4039_8836)">
<path d="M16.9381 18.875H3.55059C3.13287 18.875 2.73226 18.7091 2.43689 18.4137C2.14152 18.1183 1.97559 17.7177 1.97559 17.3V4.7C1.97559 4.28228 2.14152 3.88168 2.43689 3.58631C2.73226 3.29094 3.13287 3.125 3.55059 3.125H16.9381C17.3558 3.125 17.7564 3.29094 18.0518 3.58631C18.3471 3.88168 18.5131 4.28228 18.5131 4.7V7.89725L22.7813 4.84962C22.8989 4.76594 23.0371 4.71615 23.181 4.7057C23.3249 4.69525 23.469 4.72453 23.5974 4.79035C23.7257 4.85617 23.8336 4.95601 23.9091 5.07895C23.9846 5.20189 24.0249 5.34322 24.0256 5.4875V16.5125C24.0249 16.6568 23.9846 16.7981 23.9091 16.9211C23.8336 17.044 23.7257 17.1438 23.5974 17.2096C23.469 17.2755 23.3249 17.3048 23.181 17.2943C23.0371 17.2838 22.8989 17.2341 22.7813 17.1504L18.5131 14.1028V17.3C18.5131 17.7177 18.3471 18.1183 18.0518 18.4137C17.7564 18.7091 17.3558 18.875 16.9381 18.875ZM3.55059 4.7V17.3H16.9381V12.575C16.9388 12.4307 16.979 12.2894 17.0546 12.1664C17.1301 12.0435 17.2379 11.9437 17.3663 11.8779C17.4947 11.812 17.6387 11.7827 17.7826 11.7932C17.9265 11.8037 18.0648 11.8534 18.1823 11.9371L22.4506 14.9847V7.01525L18.1823 10.0629C18.0648 10.1466 17.9265 10.1963 17.7826 10.2068C17.6387 10.2173 17.4947 10.188 17.3663 10.1221C17.2379 10.0563 17.1301 9.95649 17.0546 9.83355C16.979 9.71061 16.9388 9.56928 16.9381 9.425V4.7H3.55059Z" fill="white"/>
</g>
<defs>
<filter id="filter0_d_4039_8836" x="-0.424414" y="0.725" width="26.8498" height="20.55" filterUnits="userSpaceOnUse" color-interpolation-filters="sRGB">
<feFlood flood-opacity="0" result="BackgroundImageFix"/>
<feColorMatrix in="SourceAlpha" type="matrix" values="0 0 0 0 0 0 0 0 0 0 0 0 0 0 0 0 0 0 127 0" result="hardAlpha"/>
<feOffset/>
<feGaussianBlur stdDeviation="1.2"/>
<feComposite in2="hardAlpha" operator="out"/>
<feColorMatrix type="matrix" values="0 0 0 0 0 0 0 0 0 0 0 0 0 0 0 0 0 0 0.25 0"/>
<feBlend mode="normal" in2="BackgroundImageFix" result="effect1_dropShadow_4039_8836"/>
<feBlend mode="normal" in="SourceGraphic" in2="effect1_dropShadow_4039_8836" result="shape"/>
</filter>
</defs>
</svg>
