<svg width="17" height="13" viewBox="0 0 17 13" fill="none" xmlns="http://www.w3.org/2000/svg">
<path d="M11.5346 12.5703H1.21504C0.89305 12.5703 0.584248 12.4424 0.356567 12.2147C0.128886 11.987 0.000976563 11.6782 0.000976562 11.3562V1.64375C0.000976562 1.32176 0.128886 1.01296 0.356567 0.785278C0.584248 0.557597 0.89305 0.429688 1.21504 0.429688H11.5346C11.8566 0.429688 12.1654 0.557597 12.393 0.785278C12.6207 1.01296 12.7486 1.32176 12.7486 1.64375V4.1083L16.0387 1.75909C16.1293 1.69458 16.2359 1.6562 16.3468 1.64814C16.4578 1.64009 16.5688 1.66266 16.6678 1.7134C16.7667 1.76413 16.8499 1.84109 16.9081 1.93586C16.9663 2.03062 16.9973 2.13956 16.9979 2.25078V10.7492C16.9973 10.8604 16.9663 10.9694 16.9081 11.0641C16.8499 11.1589 16.7667 11.2359 16.6678 11.2866C16.5688 11.3373 16.4578 11.3599 16.3468 11.3519C16.2359 11.3438 16.1293 11.3054 16.0387 11.2409L12.7486 8.8917V11.3562C12.7486 11.6782 12.6207 11.987 12.393 12.2147C12.1654 12.4424 11.8566 12.5703 11.5346 12.5703ZM1.21504 1.64375V11.3562H11.5346V7.71406C11.5351 7.60284 11.5661 7.49391 11.6244 7.39914C11.6826 7.30437 11.7657 7.22742 11.8647 7.17668C11.9636 7.12594 12.0746 7.10337 12.1856 7.11142C12.2965 7.11948 12.4031 7.15786 12.4937 7.22237L15.7838 9.57158V3.42842L12.4937 5.77763C12.4031 5.84214 12.2965 5.88052 12.1856 5.88858C12.0746 5.89663 11.9636 5.87406 11.8647 5.82332C11.7657 5.77258 11.6826 5.69563 11.6244 5.60086C11.5661 5.50609 11.5351 5.39716 11.5346 5.28594V1.64375H1.21504Z" fill="#FF4A6C"/>
</svg>
