<svg width="41" height="41" viewBox="0 0 41 41" fill="none" xmlns="http://www.w3.org/2000/svg">
<rect x="0.264648" y="0.374512" width="39.8239" height="39.8239" rx="19.9119" fill="white"/>
<path d="M24.1591 16.3042C25.7434 16.3042 27.2628 16.9336 28.3831 18.0538C29.5033 19.1741 30.1327 20.6935 30.1327 22.2778V29.247H26.1503V22.2778C26.1503 21.7497 25.9405 21.2432 25.5671 20.8698C25.1937 20.4964 24.6872 20.2866 24.1591 20.2866C23.631 20.2866 23.1246 20.4964 22.7511 20.8698C22.3777 21.2432 22.1679 21.7497 22.1679 22.2778V29.247H18.1855V22.2778C18.1855 20.6935 18.8149 19.1741 19.9352 18.0538C21.0554 16.9336 22.5748 16.3042 24.1591 16.3042V16.3042Z" stroke="#FF4A6C" stroke-width="1.99119" stroke-linecap="round" stroke-linejoin="round"/>
<path d="M14.2031 17.2998H10.2207V29.247H14.2031V17.2998Z" stroke="#FF4A6C" stroke-width="1.99119" stroke-linecap="round" stroke-linejoin="round"/>
<path d="M12.2119 14.313C13.3116 14.313 14.2031 13.4215 14.2031 12.3218C14.2031 11.2221 13.3116 10.3306 12.2119 10.3306C11.1122 10.3306 10.2207 11.2221 10.2207 12.3218C10.2207 13.4215 11.1122 14.313 12.2119 14.313Z" stroke="#FF4A6C" stroke-width="1.99119" stroke-linecap="round" stroke-linejoin="round"/>
</svg>
