<svg width="41" height="41" viewBox="0 0 41 41" fill="none" xmlns="http://www.w3.org/2000/svg">
<rect x="0.59082" y="0.374512" width="39.8239" height="39.8239" rx="19.9119" fill="white"/>
<path d="M31.4539 11.3362C30.5005 12.0087 29.4449 12.523 28.3277 12.8594C27.7281 12.17 26.9312 11.6813 26.0449 11.4596C25.1585 11.2378 24.2254 11.2936 23.3717 11.6194C22.5181 11.9452 21.7851 12.5253 21.2719 13.2813C20.7587 14.0373 20.4901 14.9326 20.5023 15.8462V16.8418C18.7527 16.8872 17.019 16.4992 15.4557 15.7123C13.8923 14.9254 12.5478 13.7641 11.542 12.3318C11.542 12.3318 7.55959 21.2921 16.52 25.2745C14.4696 26.6663 12.027 27.3642 9.55078 27.2657C18.5112 32.2437 29.4627 27.2657 29.4627 15.8164C29.4618 15.539 29.4351 15.2624 29.3831 14.99C30.3992 13.9879 31.1162 12.7228 31.4539 11.3362V11.3362Z" stroke="#FF4A6C" stroke-width="1.99119" stroke-linecap="round" stroke-linejoin="round"/>
</svg>
