<svg width="160" height="43" viewBox="0 0 160 43" fill="none" xmlns="http://www.w3.org/2000/svg">
<path fill-rule="evenodd" clip-rule="evenodd" d="M2.22089 29.1064C1.90478 30.233 1.72994 30.4194 0.795589 30.6266C-0.185498 30.8443 -0.237197 31.0449 0.519096 31.6992C1.17172 32.2636 1.1916 32.539 0.65647 33.592C0.434899 34.0281 0.253614 34.4446 0.253614 34.5177C0.253614 34.6843 0.750603 34.5632 1.77493 34.1469C2.20585 33.9718 2.66417 33.8621 2.79335 33.903C2.92253 33.9441 3.38581 34.3078 3.82305 34.7113C4.26014 35.1148 4.67052 35.4464 4.73471 35.448C4.84388 35.4508 4.81917 35.0077 4.60781 33.167C4.52388 32.4358 4.53019 32.4183 5.15609 31.6581C5.51034 31.2278 5.75742 30.8055 5.71673 30.6995C5.6739 30.5878 5.26634 30.4428 4.72128 30.3454L3.79847 30.1805L3.20104 29.2587C2.87244 28.7517 2.56627 28.3363 2.52061 28.3355C2.47496 28.3346 2.34 28.6815 2.22089 29.1064Z" fill="#F4BB44"/>
<path d="M19.9939 34.5785C19.9939 34.5384 20.1552 34.262 20.3522 33.9642L20.7105 33.4229L20.8893 33.8483C20.9878 34.0822 21.0682 34.3884 21.0682 34.5286C21.0682 34.6689 21.1242 34.8886 21.1927 35.0168C21.2612 35.1451 21.3498 35.3553 21.3895 35.4841C21.4878 35.8018 22.2613 36.256 22.7053 36.2565C22.904 36.2568 23.104 36.3175 23.1496 36.3914C23.1953 36.4652 23.3498 36.5256 23.4932 36.5256C23.8922 36.5256 23.8104 36.6978 23.1381 37.2737C22.2592 38.0267 22.1943 38.2739 22.6344 39.1929C22.8338 39.6092 23.1068 40.1102 23.2411 40.3063C23.5171 40.7093 23.5679 40.9591 23.3242 40.7153C23.2355 40.6267 22.9673 40.5542 22.7278 40.5542C22.4884 40.5542 22.2553 40.4938 22.2096 40.4199C22.164 40.3461 21.9913 40.2856 21.8257 40.2856C21.6601 40.2856 21.4674 40.2315 21.3972 40.1654C21.3271 40.0994 21.0638 40.0019 20.8121 39.9487C20.3706 39.8555 20.3146 39.8938 19.2152 41.0387L18.0758 42.2251L18.1606 41.4904C18.2768 40.4854 18.4703 39.3378 18.5823 38.99C18.7007 38.6224 18.5184 38.2892 17.6177 37.2274C16.7924 36.2547 16.8122 36.0634 17.7503 35.9407C19.1866 35.7526 19.2939 35.7092 19.6493 35.172C19.8389 34.8856 19.9939 34.6187 19.9939 34.5785Z" fill="#6AC6F0"/>
<path d="M10.7189 2.55535C10.9209 2.46215 10.9981 2.33834 11.2653 1.67873L11.4285 1.27588L11.6476 1.61159C12.1739 2.41824 12.5611 2.68587 13.2019 2.68587C13.5399 2.68587 13.8165 2.72186 13.8165 2.76604C13.8165 2.81009 13.5748 3.12069 13.2793 3.45627C12.7144 4.09801 12.5842 4.69115 12.8848 5.25273C12.9632 5.39924 13.0085 5.66982 12.9855 5.85406C12.9439 6.18736 12.9405 6.18628 12.3393 5.64981C11.6536 5.03787 11.3506 4.99047 10.562 5.37157C9.8066 5.73643 9.7741 5.71924 10.0687 5.10945C10.4454 4.32992 10.4031 3.84972 9.92222 3.44499C9.47062 3.06496 9.42563 2.95444 9.72267 2.95444C9.83439 2.95444 10.0611 2.88461 10.2262 2.79934C10.3914 2.71394 10.6131 2.60423 10.7189 2.55535Z" fill="#A4C754"/>
<path fill-rule="evenodd" clip-rule="evenodd" d="M21.879 0.234999C21.6447 0.510149 21.4539 1.01506 21.2318 1.94713C21.1438 2.31642 21.0242 2.76963 20.9659 2.95427C20.9077 3.13891 20.7835 3.56191 20.6899 3.89427C20.4423 4.7737 19.9649 6.21646 19.4945 7.50707C19.2683 8.12774 19.0832 8.65373 19.0832 8.67589C19.0832 8.69818 18.9253 8.87423 18.7323 9.0672C18.3301 9.46938 18.0405 9.59964 16.7332 9.96624C15.1857 10.4004 15.0803 10.4283 12.5788 11.0675C8.70781 12.0569 8.65611 12.2818 11.6975 14.9048C12.2515 15.3825 13.3846 16.4407 14.2154 17.2562L15.7261 18.7388V19.414C15.7261 19.7853 15.6753 20.1464 15.6133 20.2166C15.5512 20.2867 15.4198 20.5557 15.3211 20.8142C14.6682 22.524 13.3727 25.1065 11.7361 27.9607C11.112 29.0489 11.0304 29.5937 11.4519 29.8575C11.6182 29.9615 11.9316 29.9163 12.6605 29.6832C13.2018 29.5101 13.8864 29.2925 14.1818 29.1996C14.4772 29.1068 14.9909 28.9288 15.3232 28.8037C15.6556 28.6789 16.2599 28.4547 16.6661 28.3058C17.0723 28.1569 17.5859 27.956 17.8075 27.8593C18.0291 27.7628 18.5379 27.5549 18.938 27.3976C19.7059 27.0958 20.4193 26.7821 21.6346 26.2118C22.0762 26.0046 22.6212 25.8621 22.9898 25.8575C23.5879 25.8501 24.0957 26.1441 25.022 27.034C25.1161 27.1245 25.3653 27.3313 25.5756 27.4938C26.3807 28.1157 29.0563 30.5509 31.0726 32.497C32.7336 34.1002 32.8191 34.1614 33.2452 34.0546C33.6835 33.9446 33.7513 33.6565 33.5942 32.572C33.5187 32.0508 33.3597 30.9292 33.2412 30.0799C32.8754 27.4616 32.7965 26.9337 32.7295 26.6556C32.6941 26.5079 32.6005 26.0244 32.5218 25.5813C32.37 24.7271 32.0214 22.9845 31.8234 22.0899C31.3483 19.9444 31.4185 19.4944 32.378 18.5324C32.4892 18.4211 33.033 17.8163 33.5865 17.1885C34.1402 16.5607 34.625 16.0169 34.6638 15.9799C34.7026 15.943 34.9427 15.6409 35.1974 15.3085C35.4522 14.9761 35.6961 14.674 35.7397 14.6371C35.9798 14.4334 37.6802 12.0913 37.8568 11.7211C38.0385 11.3401 38.0408 11.2387 37.8745 10.9283C37.6077 10.4295 37.234 10.2192 36.3223 10.0547C35.8883 9.97631 35.2612 9.85773 34.9288 9.79099C34.2511 9.65496 33.1614 9.46213 32.0081 9.27399C29.0245 8.78735 28.6799 8.70221 28.2205 8.33803C27.9654 8.13566 27.6566 7.79323 27.5346 7.57717C26.5014 5.74821 25.76 4.48969 25.088 3.42427C22.9635 0.055594 22.9188 0 22.3357 0C22.1946 0 21.989 0.105817 21.879 0.234999ZM28.1747 12.1192C29.0997 12.5326 29.4688 13.157 29.4716 14.3124C29.4731 14.9438 29.4056 15.2246 29.1745 15.5493C28.691 16.2281 28.1512 16.5395 27.4575 16.5395C26.6793 16.5395 26.5182 16.3876 26.8678 15.9844C27.5279 15.2234 27.4575 14.0176 26.7169 13.3949C26.4753 13.1918 26.1696 13.0257 26.0376 13.0257C25.7542 13.0257 25.7339 12.8951 25.9676 12.5757C26.3839 12.0064 27.4356 11.7889 28.1747 12.1192ZM21.3168 12.9475C21.6358 13.2206 21.9251 13.6251 22.0312 13.9466C22.5096 15.3965 21.4399 17.0542 20.0259 17.0542C19.408 17.0542 19.3441 16.8869 19.7836 16.419C20.0196 16.1679 20.082 15.9391 20.0858 15.3128C20.0914 14.3359 19.7737 13.8432 18.9705 13.5836C18.6632 13.4842 18.4118 13.3528 18.4118 13.2913C18.4118 13.2298 18.6081 13.0246 18.8482 12.8355C19.1972 12.5604 19.4345 12.4912 20.0326 12.49C20.691 12.4886 20.8448 12.5434 21.3168 12.9475ZM18.3844 17.9895C18.7381 18.7266 19.8411 19.8305 20.6275 20.2345C21.8582 20.8666 21.9245 20.8813 23.5017 20.879C24.9897 20.8769 25.0986 20.8572 25.9519 20.4351C26.4537 20.1868 27.1301 19.7012 27.4962 19.3264C28.1587 18.6479 28.638 18.5027 28.7241 18.9545C28.8005 19.3557 27.2845 20.6889 26.2003 21.1741C25.1937 21.6243 24.8545 21.6866 23.4475 21.6797C21.6991 21.6708 21.0267 21.477 19.7546 20.6152C18.8042 19.9713 18.0706 19.1734 17.6235 18.297C17.301 17.6647 17.2568 17.2383 17.5054 17.1538C17.7884 17.0576 18.062 17.3177 18.3844 17.9895Z" fill="#C05698"/>
<path fill-rule="evenodd" clip-rule="evenodd" d="M61.5984 7.07068C61.5491 7.11983 61.5088 11.6836 61.5088 17.2124V27.2649L63.6909 27.2279L65.8731 27.191L65.9402 24.1026L66.0073 21.014L67.2159 22.8625C67.8806 23.879 68.7865 25.2839 69.229 25.9845L70.0333 27.2582H72.634C74.9056 27.2582 75.2247 27.2324 75.1563 27.054C75.074 26.8397 74.0072 25.2252 73.8715 25.1096C73.8281 25.0727 73.4051 24.4986 72.9316 23.8339C72.458 23.1692 71.6581 22.0687 71.154 21.3884C70.6498 20.708 70.2373 20.0837 70.2373 20.0009C70.2373 19.8808 71.7055 17.8569 71.9865 17.5896C72.2666 17.3232 74.803 13.831 74.803 13.7116C74.803 13.6058 74.056 13.5612 72.2852 13.5613L69.7673 13.5616L68.3438 15.7435C67.5608 16.9435 66.745 18.2123 66.5309 18.5629C66.3167 18.9137 66.0964 19.2006 66.0409 19.2008C65.9855 19.2009 65.9402 16.4882 65.9402 13.1726C65.9402 7.79931 65.9171 7.13527 65.7278 7.06262C65.4382 6.95157 61.7102 6.95868 61.5984 7.07068ZM109.541 7.06732C109.49 7.11835 109.449 11.6822 109.449 17.2092V27.2582H111.598H113.747L113.713 17.1532L113.679 7.04825L111.656 7.01132C110.544 6.99105 109.593 7.01616 109.541 7.06732ZM117.33 7.06732C117.279 7.11835 117.237 11.6822 117.237 17.2092V27.2582H119.386H121.534V26.6539C121.534 26.3215 121.571 26.0496 121.616 26.0496C121.66 26.0496 121.815 26.199 121.958 26.3818C122.102 26.5644 122.603 26.8968 123.071 27.1204C123.839 27.487 124.051 27.5267 125.237 27.5267C127.512 27.5267 128.986 26.7821 130.154 25.0425C131.477 23.0703 131.865 19.3263 131.003 16.8511C130.441 15.2394 129.204 13.9243 127.794 13.4409C127.105 13.2047 124.835 13.2013 124.15 13.4357C123.467 13.6689 122.278 14.4339 121.95 14.8506C121.811 15.0276 121.661 15.1725 121.618 15.1725C121.574 15.1725 121.522 13.3445 121.503 11.1104L121.467 7.04825L119.445 7.01132C118.333 6.99105 117.381 7.01616 117.33 7.06732ZM51.3703 7.91265C47.8822 8.38318 45.7968 10.4923 45.7977 13.5483C45.7984 15.4536 46.6433 16.9773 48.3228 18.1018C49.0474 18.5868 49.4254 18.7828 50.5981 19.2805C52.6822 20.1652 53.8466 20.9582 54.121 21.6797C54.3192 22.2011 54.1301 22.9314 53.7037 23.29C53.2229 23.6946 52.0738 24.0353 51.1901 24.0353C49.8014 24.0353 47.9179 23.4167 46.6491 22.5435C46.3272 22.3221 46.0038 22.1779 45.9307 22.2231C45.7239 22.351 45.7562 26.3861 45.9653 26.5557C46.0577 26.6305 46.4353 26.7955 46.8046 26.9223C48.1405 27.3809 49.2096 27.5267 51.236 27.5267C54.5766 27.5267 56.0913 27.0609 57.5474 25.5856C58.6366 24.4819 58.9574 23.6331 58.9574 21.8543C58.9574 20.563 58.9061 20.3305 58.3778 19.2263C57.9502 18.3325 56.65 17.2091 55.261 16.5335C54.5982 16.2111 53.5047 15.6777 52.8309 15.348C51.2755 14.5872 50.5706 13.9057 50.5706 13.1624C50.5706 12.5299 50.9345 12.0893 51.7887 11.6878C52.2457 11.4731 52.6444 11.4125 53.6025 11.4125C55.1061 11.4125 55.7555 11.5647 57.2039 12.2561C57.6059 12.448 57.9835 12.5749 58.0432 12.538C58.1029 12.5012 58.1517 11.5813 58.1517 10.4939V8.51693L57.5138 8.34142C57.1631 8.24487 56.6947 8.1083 56.4731 8.0378C55.9291 7.86471 52.3727 7.77755 51.3703 7.91265ZM81.7187 13.3014C79.7988 13.5135 78.6054 14.0524 77.4098 15.2472C76.6008 16.0554 76.0989 16.9144 75.7269 18.1268C75.4836 18.9201 75.4791 21.8768 75.72 22.6925C76.1573 24.1726 76.9787 25.4174 78.0418 26.2109C78.5846 26.616 79.7615 27.1819 80.3758 27.3334C81.1422 27.5223 84.2407 27.5545 85.0087 27.3816C87.3557 26.853 88.9461 25.4262 89.9426 22.9554C90.2608 22.1665 90.4231 20.1811 90.2576 19.1025C89.9787 17.2849 89.5342 16.3409 88.4311 15.2234C87.5628 14.3438 86.5942 13.7751 85.4916 13.4977C84.5631 13.2639 82.8589 13.1753 81.7187 13.3014ZM98.37 13.305C97.1354 13.4288 96.7668 13.52 95.9018 13.9155C94.2008 14.6928 93.185 15.807 92.4295 17.7239C92.3568 17.9086 92.2187 18.5884 92.1227 19.2346C91.9797 20.1984 91.9797 20.6208 92.1227 21.5846C92.3048 22.8106 92.3537 22.9718 92.9003 24.1507C93.5918 25.6414 95.3588 26.9604 97.2286 27.3816C97.9978 27.5548 101.051 27.5179 101.908 27.325C103.532 26.9595 105.309 25.5382 106.05 24.0134C106.708 22.6566 106.821 22.1148 106.826 20.2857C106.832 17.8538 106.36 16.5411 104.985 15.1667C104.252 14.4339 102.773 13.5611 102.264 13.5611C102.144 13.5611 101.944 13.5088 101.819 13.4452C101.492 13.2773 99.4657 13.195 98.37 13.305ZM154.233 13.3008C151.47 13.5869 149.733 15.0322 149.506 17.2347C149.37 18.5542 149.959 19.9483 150.967 20.6924C151.591 21.1533 152.763 21.7016 153.937 22.0821C155.974 22.742 156.447 23.6225 155.107 24.2594C154.039 24.7668 152.655 24.631 150.741 23.8313C150.15 23.5845 149.62 23.4285 149.562 23.4849C149.504 23.5413 149.474 24.3306 149.495 25.2389L149.533 26.8906L150.204 27.0824C150.573 27.1879 151.061 27.3309 151.288 27.4005C151.963 27.6072 155.387 27.5548 156.274 27.3242C157.929 26.8938 159.098 26.0763 159.71 24.9199C159.953 24.4621 160.001 24.1482 160 23.0282C159.999 21.8753 159.955 21.6117 159.693 21.1651C159.322 20.5309 159.227 20.4359 158.463 19.9291C157.719 19.4362 157.21 19.1982 156.045 18.7982C154.75 18.3532 154.309 18.1136 154.007 17.6906C153.756 17.3366 153.752 17.2902 153.954 16.9815C154.544 16.0809 156.426 16.0186 158.378 16.8351C159.279 17.2115 159.268 17.2273 159.268 15.4679C159.268 13.7438 159.201 13.5611 158.561 13.5611C158.35 13.5611 158.075 13.509 157.95 13.4452C157.621 13.2767 155.326 13.1876 154.233 13.3008ZM133.801 13.7659C133.758 13.8785 133.753 16.1598 133.789 18.8351C133.852 23.4604 133.87 23.7447 134.164 24.6177C134.374 25.2436 134.661 25.7456 135.065 26.1949C135.613 26.8035 135.829 26.9439 136.883 27.3735C137.089 27.4578 137.836 27.5267 138.542 27.5267C139.694 27.5267 139.913 27.485 140.677 27.1202C141.146 26.8967 141.764 26.4737 142.052 26.1803C142.34 25.8868 142.615 25.6467 142.663 25.6467C142.712 25.6467 142.751 26.0093 142.751 26.4524V27.2582H144.9H147.048V20.4096V13.5611H144.9H142.751V17.5123C142.751 22.1681 142.683 22.6328 141.873 23.443C140.677 24.6403 138.827 24.1979 138.348 22.6001C138.236 22.2245 138.186 20.7476 138.186 17.8091V13.5611H136.033C134.227 13.5611 133.867 13.5941 133.801 13.7659ZM84.525 17.0619C85.4064 17.6659 85.8096 18.6673 85.8124 20.2598C85.8155 21.984 85.4581 22.9577 84.5539 23.6897C84.0762 24.0761 83.974 24.1022 82.9483 24.0986C81.984 24.0952 81.7883 24.0512 81.3125 23.7314C80.6984 23.3188 80.384 22.8488 80.1035 21.9244C79.6099 20.2976 80.1341 18.0629 81.2114 17.2015C81.8028 16.7286 82.0997 16.6529 83.1612 16.7042C83.8405 16.7371 84.1811 16.8264 84.525 17.0619ZM101.225 17.1458C101.495 17.3639 101.81 17.7192 101.926 17.9353C102.946 19.8333 102.412 23.0952 100.962 23.8308C99.9517 24.3432 98.4259 24.2131 97.6342 23.5471C96.874 22.9073 96.6243 22.1482 96.6243 20.4768C96.6243 19.2934 96.6758 18.8927 96.8832 18.4625C97.4118 17.3655 97.6599 17.1297 98.7058 16.7313C98.8165 16.689 99.3185 16.6758 99.8211 16.7017C100.594 16.7419 100.811 16.8104 101.225 17.1458ZM125.769 17.1139C126.48 17.6566 126.819 18.5131 126.881 19.9294C126.959 21.6856 126.602 22.76 125.677 23.5512C124.389 24.6541 122.595 24.2269 121.857 22.641C121.582 22.0502 121.537 21.7488 121.536 20.4897C121.534 19.2028 121.575 18.9391 121.872 18.3117C122.211 17.5957 122.881 16.9338 123.447 16.7559C123.614 16.7035 124.099 16.6828 124.527 16.7099C125.109 16.747 125.42 16.848 125.769 17.1139Z" fill="url(#paint0_linear_3938_12062)"/>
<defs>
<linearGradient id="paint0_linear_3938_12062" x1="102.895" y1="6.98291" x2="102.895" y2="27.5298" gradientUnits="userSpaceOnUse">
<stop stop-color="#0B1B34"/>
<stop offset="1" stop-color="#103166" stop-opacity="0.83"/>
</linearGradient>
</defs>
</svg>
