<svg width="14" height="14" viewBox="0 0 14 14" fill="none" xmlns="http://www.w3.org/2000/svg">
<path d="M5.93401 0.966191C6.0115 0.802357 6.13134 0.664417 6.28 0.567968C6.42865 0.471518 6.60019 0.420404 6.77522 0.420404C6.95024 0.420404 7.12178 0.471518 7.27044 0.567968C7.41909 0.664417 7.53893 0.802357 7.61642 0.966191L9.20189 4.31993L12.747 4.85749C12.9203 4.88358 13.0832 4.95979 13.2172 5.07749C13.3511 5.19519 13.4509 5.34969 13.5051 5.52349C13.5594 5.6973 13.5659 5.88348 13.524 6.06097C13.4822 6.23847 13.3936 6.40019 13.2682 6.52783L10.7019 9.13944L11.3075 12.8251C11.3369 13.0051 11.3175 13.1902 11.2515 13.3594C11.1855 13.5286 11.0754 13.6751 10.9338 13.7824C10.7922 13.8897 10.6247 13.9535 10.4501 13.9666C10.2756 13.9798 10.101 13.9417 9.94615 13.8567L6.77522 12.1178L3.60429 13.8588C3.44923 13.944 3.27442 13.9822 3.09966 13.969C2.92489 13.9558 2.75716 13.8918 2.61546 13.7842C2.47376 13.6766 2.36376 13.5297 2.29792 13.3602C2.23208 13.1907 2.21303 13.0053 2.24294 12.8251L2.84752 9.13944L0.283256 6.52892C0.157938 6.40135 0.0693085 6.23971 0.0273897 6.0623C-0.0145292 5.88489 -0.00806562 5.69877 0.0460494 5.52499C0.100164 5.35121 0.199773 5.19671 0.333611 5.07894C0.46745 4.96117 0.630181 4.88484 0.803405 4.85858L4.34751 4.32102L5.93401 0.966191Z" fill="#12A35C"/>
</svg>
