<svg width="13" height="21" viewBox="0 0 13 21" fill="none" xmlns="http://www.w3.org/2000/svg">
<path d="M12.0793 12.028C12.3138 11.7938 12.4457 11.4761 12.446 11.1447V10.5114C12.4421 10.1807 12.3108 9.86424 12.0793 9.62804L3.51262 1.07804C3.35615 0.920281 3.14315 0.831543 2.92095 0.831543C2.69875 0.831543 2.48576 0.920281 2.32929 1.07804L1.14595 2.26137C0.989179 2.41498 0.900833 2.62523 0.900833 2.84471C0.900833 3.06419 0.989179 3.27444 1.14595 3.42804L8.56262 10.828L1.14595 18.228C0.988192 18.3845 0.899454 18.5975 0.899454 18.8197C0.899454 19.0419 0.988192 19.2549 1.14595 19.4114L2.32929 20.578C2.48576 20.7358 2.69875 20.8245 2.92095 20.8245C3.14315 20.8245 3.35615 20.7358 3.51262 20.578L12.0793 12.028Z" fill="#FF4A6C"/>
</svg>
