<svg width="41" height="30" viewBox="0 0 41 30" fill="none" xmlns="http://www.w3.org/2000/svg">
<path opacity="0.8" d="M12.2396 28.16C9.6529 28.16 7.4929 27.84 5.75957 27.2C4.02624 26.5866 2.71957 25.72 1.83957 24.6C0.986237 23.5066 0.55957 22.24 0.55957 20.8C0.55957 20.1333 0.706237 19.48 0.99957 18.84C1.2929 18.2 1.74624 17.6666 2.35957 17.24C2.70624 17 3.07957 16.8 3.47957 16.64C3.87957 16.48 4.39957 16.36 5.03957 16.28C5.70624 16.2 6.5729 16.16 7.63957 16.16H37.5196L37.6396 19.04H8.07957C7.2529 19.04 6.6129 19.0533 6.15957 19.08C5.7329 19.1066 5.4129 19.16 5.19957 19.24C4.98624 19.32 4.7729 19.44 4.55957 19.6C4.15957 19.92 3.95957 20.3733 3.95957 20.96C3.95957 22.2666 4.66624 23.3066 6.07957 24.08C7.4929 24.8533 9.62624 25.24 12.4796 25.24H13.1596C15.8529 25.24 18.1596 24.92 20.0796 24.28C22.0262 23.6666 23.6262 22.8133 24.8796 21.72C26.1596 20.6266 27.1196 19.3866 27.7596 18L27.9196 17.24C28.1596 16.5733 28.3329 15.9066 28.4396 15.24C28.5462 14.5466 28.5996 13.8533 28.5996 13.16C28.5996 11.6133 28.3329 10.1466 27.7996 8.75996C27.2662 7.37329 26.4396 6.21329 25.3196 5.27996C24.2262 4.31996 22.8129 3.70663 21.0796 3.43996C20.7329 3.38663 20.3996 3.35996 20.0796 3.35996C19.7862 3.33329 19.4662 3.31996 19.1196 3.31996C18.2929 3.31996 17.5329 3.46663 16.8396 3.75996C16.1462 4.05329 15.5862 4.49329 15.1596 5.07996C14.7596 5.66663 14.5596 6.41329 14.5596 7.31996C14.5596 8.30663 14.8529 9.14663 15.4396 9.83996C16.0529 10.5066 16.9062 10.84 17.9996 10.84C19.0129 10.84 19.8129 10.5333 20.3996 9.91996C21.0129 9.27996 21.3196 8.37329 21.3196 7.19996C21.3196 6.31996 21.1729 5.53329 20.8796 4.83996C20.6129 4.11996 20.1329 3.43996 19.4396 2.79996L21.7196 2.11996C22.1996 2.51996 22.6396 2.98663 23.0396 3.51996C23.4662 4.05329 23.7996 4.65329 24.0396 5.31996C24.3062 5.95996 24.4396 6.63996 24.4396 7.35996C24.4396 8.29329 24.2929 9.14663 23.9996 9.91996C23.7329 10.6666 23.3196 11.32 22.7596 11.88C22.1996 12.4133 21.5062 12.8266 20.6796 13.12C19.8796 13.4133 18.9596 13.56 17.9196 13.56C16.7196 13.56 15.6262 13.3333 14.6396 12.88C13.6529 12.4266 12.8662 11.7466 12.2796 10.84C11.6929 9.93329 11.3996 8.81329 11.3996 7.47996C11.3996 5.82663 11.7862 4.49329 12.5596 3.47996C13.3329 2.46663 14.3329 1.73329 15.5596 1.27996C16.8129 0.799959 18.1329 0.559959 19.5196 0.559959C21.5729 0.559959 23.3729 0.906626 24.9196 1.59996C26.4929 2.29329 27.7996 3.23996 28.8396 4.43996C29.9062 5.63996 30.7062 6.98663 31.2396 8.47996C31.7729 9.97329 32.0396 11.52 32.0396 13.12C32.0396 13.84 31.9996 14.5466 31.9196 15.24C31.8396 15.9066 31.7196 16.56 31.5596 17.2L31.3196 18.08C30.5729 20.2666 29.3196 22.1066 27.5596 23.6C25.8262 25.0933 23.7196 26.2266 21.2396 27C18.7862 27.7733 16.0662 28.16 13.0796 28.16H12.2396ZM37.2796 29.36V1.03996H40.7196V29.36H37.2796Z" fill="#FF4A6C"/>
</svg>
