<svg width="24" height="22" viewBox="0 0 24 22" fill="none" xmlns="http://www.w3.org/2000/svg">
<path fill-rule="evenodd" clip-rule="evenodd" d="M12.1871 1.27357C12.8455 0.641986 13.909 0.641986 14.5674 1.27357L23.5015 9.84315C24.1662 10.4807 24.1662 11.519 23.5015 12.1566L14.5676 20.7262C14.2373 21.0428 13.8059 21.1999 13.3775 21.1999C12.9491 21.1999 12.5176 21.0429 12.1873 20.7262C11.5226 20.0886 11.5226 19.0503 12.1873 18.4127L18.2155 12.6303H1.68863C0.766476 12.6303 0 11.9103 0 10.9999C0 10.0893 0.766491 9.36944 1.68863 9.36944H18.2155L12.1871 3.587C11.5224 2.94941 11.5224 1.91115 12.1871 1.27357Z" fill="#FF4A6C"/>
</svg>
