<svg width="40" height="40" viewBox="0 0 40 40" fill="none" xmlns="http://www.w3.org/2000/svg">
<g opacity="0.9">
<path d="M35.5549 30.2149L34.3099 25.5799L29.3449 7.02488C29.1974 6.4873 28.8435 6.02971 28.3604 5.75162C27.8773 5.47354 27.3039 5.39744 26.7649 5.53988L22.1299 6.78488C22.0141 6.8142 21.903 6.85965 21.7999 6.91988C21.6134 6.60895 21.3497 6.35158 21.0342 6.17283C20.7188 5.99409 20.3625 5.90005 19.9999 5.89988H15.1999C14.7707 5.89745 14.3514 6.0285 13.9999 6.27488C13.6485 6.0285 13.2291 5.89745 12.7999 5.89988H7.9999C7.44295 5.89988 6.9088 6.12113 6.51498 6.51496C6.12115 6.90878 5.8999 7.44293 5.8999 7.99988V31.9999C5.8999 32.5568 6.12115 33.091 6.51498 33.4848C6.9088 33.8786 7.44295 34.0999 7.9999 34.0999H12.7999C13.2291 34.1023 13.6485 33.9713 13.9999 33.7249C14.3514 33.9713 14.7707 34.1023 15.1999 34.0999H19.9999C20.5569 34.0999 21.091 33.8786 21.4848 33.4848C21.8787 33.091 22.0999 32.5568 22.0999 31.9999V14.7799L26.8549 32.5399C26.9767 32.9877 27.2424 33.383 27.611 33.6649C27.9797 33.9469 28.4308 34.0997 28.8949 34.0999C29.0773 34.097 29.2586 34.0718 29.4349 34.0249L34.0699 32.7799C34.6063 32.6357 35.0638 32.2848 35.3421 31.8041C35.6204 31.3233 35.6969 30.7519 35.5549 30.2149V30.2149ZM23.8549 14.4049L29.0749 13.0099L32.3449 25.1749L27.1249 26.5699L23.8549 14.4049ZM22.4149 8.67488C22.4534 8.6036 22.5178 8.54988 22.5949 8.52488L27.2299 7.27988H27.3049C27.3701 7.28135 27.4333 7.30208 27.4867 7.33945C27.5401 7.37682 27.5812 7.42917 27.6049 7.48988L28.6099 11.2699L23.3899 12.6649L22.3849 8.89988C22.3666 8.82376 22.3773 8.74355 22.4149 8.67488V8.67488ZM15.1999 7.69988H19.9999C20.0795 7.69988 20.1558 7.73149 20.212 7.78775C20.2683 7.84401 20.2999 7.92032 20.2999 7.99988V26.2999H14.8999V7.99988C14.8999 7.92032 14.9315 7.84401 14.9878 7.78775C15.044 7.73149 15.1203 7.69988 15.1999 7.69988ZM7.9999 7.69988H12.7999C12.8795 7.69988 12.9558 7.73149 13.012 7.78775C13.0683 7.84401 13.0999 7.92032 13.0999 7.99988V11.8999H7.6999V7.99988C7.6999 7.92032 7.73151 7.84401 7.78777 7.78775C7.84403 7.73149 7.92034 7.69988 7.9999 7.69988ZM12.7999 32.2999H7.9999C7.92034 32.2999 7.84403 32.2683 7.78777 32.212C7.73151 32.1558 7.6999 32.0794 7.6999 31.9999V13.6999H13.0999V31.9999C13.0999 32.0794 13.0683 32.1558 13.012 32.212C12.9558 32.2683 12.8795 32.2999 12.7999 32.2999ZM19.9999 32.2999H15.1999C15.1203 32.2999 15.044 32.2683 14.9878 32.212C14.9315 32.1558 14.8999 32.0794 14.8999 31.9999V28.0999H20.2999V31.9999C20.2999 32.0794 20.2683 32.1558 20.212 32.212C20.1558 32.2683 20.0795 32.2999 19.9999 32.2999ZM33.6049 31.0399L28.9699 32.2849C28.9315 32.2963 28.8912 32.2998 28.8514 32.2954C28.8116 32.2909 28.7731 32.2786 28.7381 32.259C28.7031 32.2394 28.6725 32.213 28.6479 32.1814C28.6233 32.1498 28.6053 32.1136 28.5949 32.0749L27.5899 28.3099L32.8099 26.9149L33.8149 30.6799C33.8262 30.7173 33.8296 30.7567 33.825 30.7955C33.8204 30.8343 33.8078 30.8718 33.7881 30.9055C33.7684 30.9393 33.742 30.9686 33.7105 30.9918C33.679 31.0149 33.643 31.0312 33.6049 31.0399V31.0399Z" fill="white"/>
</g>
</svg>
