<svg width="52" height="53" viewBox="0 0 52 53" fill="none" xmlns="http://www.w3.org/2000/svg">
<path d="M14.2667 26.7354C13.0584 26.4905 11.9107 26.002 10.8915 25.2987C9.87236 24.5955 9.00237 23.6919 8.33301 22.6413C7.66365 21.5906 7.20853 20.4144 6.99454 19.182C6.78056 17.9496 6.81206 16.6862 7.08719 15.4664C7.36232 14.2466 7.87548 13.0952 8.59634 12.0804C9.3172 11.0655 10.2311 10.2077 11.284 9.55781C12.337 8.90789 13.5075 8.479 14.7265 8.2965C15.9454 8.11401 17.1881 8.18161 18.3808 8.49532C19.2427 7.38409 20.3417 6.4861 21.595 5.86908C22.8483 5.25205 24.2232 4.93209 25.616 4.93332C27.049 4.93205 28.4624 5.27066 29.7437 5.92217C31.025 6.57368 32.1388 7.52008 32.9963 8.68599C34.1913 8.27427 35.4568 8.11618 36.7144 8.22151C37.9721 8.32684 39.195 8.69336 40.3074 9.29834C41.4199 9.90332 42.3981 10.7339 43.1816 11.7386C43.965 12.7432 44.537 13.9006 44.862 15.139C45.1871 16.3773 45.2582 17.6703 45.0711 18.9377C44.884 20.2052 44.4426 21.4201 43.7743 22.5072C43.106 23.5943 42.2249 24.5304 41.1858 25.2575C40.1467 25.9846 38.9716 26.4873 37.7334 26.7343V43.9333C37.7334 44.508 37.5086 45.0591 37.1085 45.4654C36.7085 45.8717 36.1658 46.1 35.6 46.1H16.4C15.8343 46.1 15.2916 45.8717 14.8916 45.4654C14.4915 45.0591 14.2667 44.508 14.2667 43.9333V26.7354Z" stroke="#FF4A6C" stroke-width="2.4" stroke-linecap="round" stroke-linejoin="round"/>
<path d="M14.2666 34.1834H37.7333" stroke="#FF4A6C" stroke-width="2.4" stroke-linecap="round" stroke-linejoin="round"/>
<path d="M21.7334 27.6834V34.1834" stroke="#FF4A6C" stroke-width="2.4" stroke-linecap="round" stroke-linejoin="round"/>
<path d="M37.7334 30.9334V37.4334" stroke="#FF4A6C" stroke-width="2.4" stroke-linecap="round" stroke-linejoin="round"/>
</svg>
