<svg width="42" height="42" viewBox="0 0 42 42" fill="none" xmlns="http://www.w3.org/2000/svg">
<path d="M37.3335 9.33328H28.8168L27.5802 6.15994C27.411 5.72142 27.1133 5.34423 26.726 5.07777C26.3388 4.81131 25.8802 4.668 25.4102 4.66661H16.5902C16.1181 4.66564 15.6569 4.80786 15.2674 5.07447C14.8779 5.34109 14.5784 5.71957 14.4085 6.15994L13.1835 9.33328H4.66683C4.04799 9.33328 3.4545 9.57911 3.01691 10.0167C2.57933 10.4543 2.3335 11.0478 2.3335 11.6666V34.9999C2.3335 35.6188 2.57933 36.2123 3.01691 36.6499C3.4545 37.0874 4.04799 37.3333 4.66683 37.3333H37.3335C37.9523 37.3333 38.5458 37.0874 38.9834 36.6499C39.421 36.2123 39.6668 35.6188 39.6668 34.9999V11.6666C39.6668 11.0478 39.421 10.4543 38.9834 10.0167C38.5458 9.57911 37.9523 9.33328 37.3335 9.33328V9.33328ZM37.3335 34.9999H4.66683V11.6666H14.7818L16.5902 6.99994H25.4102L27.2185 11.6666H37.3335V34.9999Z" fill="#FF4A6C"/>
<path d="M10.5 22.1666C10.5 24.2433 11.1158 26.2734 12.2696 28.0001C13.4233 29.7268 15.0632 31.0726 16.9818 31.8673C18.9004 32.6621 21.0116 32.87 23.0485 32.4649C25.0853 32.0597 26.9562 31.0597 28.4246 29.5912C29.8931 28.1228 30.8931 26.2519 31.2982 24.2151C31.7034 22.1783 31.4955 20.0671 30.7007 18.1484C29.906 16.2298 28.5602 14.5899 26.8335 13.4362C25.1068 12.2824 23.0767 11.6666 21 11.6666C18.2152 11.6666 15.5445 12.7728 13.5754 14.742C11.6062 16.7111 10.5 19.3818 10.5 22.1666V22.1666ZM29.6333 22.1666C29.6333 23.8741 29.127 25.5433 28.1784 26.963C27.2297 28.3828 25.8814 29.4893 24.3038 30.1428C22.7263 30.7962 20.9904 30.9672 19.3157 30.6341C17.641 30.3009 16.1027 29.4787 14.8953 28.2713C13.6879 27.0639 12.8657 25.5256 12.5326 23.8509C12.1994 22.1762 12.3704 20.4403 13.0238 18.8628C13.6773 17.2852 14.7838 15.9369 16.2036 14.9882C17.6233 14.0396 19.2925 13.5333 21 13.5333C23.2888 13.5364 25.4829 14.4469 27.1013 16.0653C28.7197 17.6837 29.6302 19.8778 29.6333 22.1666V22.1666Z" fill="#FF4A6C"/>
<path d="M10.9318 14.9683C10.9318 14.7208 10.8335 14.4834 10.6584 14.3083C10.4834 14.1333 10.246 14.035 9.99847 14.035H7.19847C6.95093 14.035 6.71354 14.1333 6.5385 14.3083C6.36347 14.4834 6.26514 14.7208 6.26514 14.9683C6.26514 15.2158 6.36347 15.4532 6.5385 15.6283C6.71354 15.8033 6.95093 15.9016 7.19847 15.9016H9.99847C10.246 15.9016 10.4834 15.8033 10.6584 15.6283C10.8335 15.4532 10.9318 15.2158 10.9318 14.9683V14.9683Z" fill="#FF4A6C"/>
<path d="M14.3967 22.1667C14.4098 23.3972 14.772 24.5986 15.4412 25.6313C16.1103 26.6639 17.0589 27.4854 18.1767 28L19.1683 26.4017C18.5003 26.178 17.8915 25.8059 17.3878 25.3134C16.8841 24.8209 16.4984 24.2207 16.2596 23.5578C16.0209 22.895 15.9354 22.1867 16.0094 21.4861C16.0835 20.7855 16.3152 20.1107 16.6872 19.5124C17.0592 18.9141 17.5619 18.4079 18.1574 18.0315C18.753 17.6552 19.4261 17.4186 20.1261 17.3395C20.8262 17.2603 21.5351 17.3407 22.1996 17.5746C22.8642 17.8085 23.4672 18.1899 23.9633 18.69L24.9667 17.08C24.0115 16.3062 22.8562 15.8197 21.6353 15.6772C20.4143 15.5346 19.178 15.742 18.0703 16.275C16.9626 16.8081 16.0292 17.6449 15.3788 18.688C14.7284 19.7311 14.3878 20.9375 14.3967 22.1667Z" fill="#FF4A6C"/>
</svg>
