<svg width="47" height="47" viewBox="0 0 47 47" fill="none" xmlns="http://www.w3.org/2000/svg">
<path d="M40.0662 13.4667V5.86668C40.0662 5.19479 39.7993 4.55043 39.3242 4.07534C38.8491 3.60025 38.2048 3.33334 37.5329 3.33334H8.39954C7.72766 3.33334 7.0833 3.60025 6.60821 4.07534C6.13311 4.55043 5.86621 5.19479 5.86621 5.86668V13.4667C5.86621 14.1386 6.13311 14.7829 6.60821 15.258C7.0833 15.7331 7.72766 16 8.39954 16H37.5329C38.2048 16 38.8491 15.7331 39.3242 15.258C39.7993 14.7829 40.0662 14.1386 40.0662 13.4667ZM8.39954 5.86668H37.5329V13.4667H8.39954V5.86668Z" fill="#FF4A6C"/>
<path d="M42.5997 8.39993H41.3331V16.3673L24.4864 21.7506C24.2195 21.8342 23.9878 22.0038 23.8274 22.233C23.667 22.4621 23.5869 22.7379 23.5997 23.0173V24.8666H21.0664V42.5999C21.0664 43.2718 21.3333 43.9162 21.8084 44.3913C22.2835 44.8664 22.9279 45.1333 23.5997 45.1333H26.1331C26.805 45.1333 27.4493 44.8664 27.9244 44.3913C28.3995 43.9162 28.6664 43.2718 28.6664 42.5999V24.8666H26.1331V23.9419L42.9797 18.5333C43.2466 18.4497 43.4784 18.28 43.6388 18.0509C43.7992 17.8218 43.8792 17.546 43.8664 17.2666V9.6666C43.8664 9.33066 43.733 9.00848 43.4954 8.77093C43.2579 8.53339 42.9357 8.39993 42.5997 8.39993ZM26.1331 42.5999H23.5997V27.3999H26.1331V42.5999Z" fill="#FF4A6C"/>
</svg>
