<svg width="41" height="29" viewBox="0 0 41 29" fill="none" xmlns="http://www.w3.org/2000/svg">
<path d="M39.9161 14.6202C39.7692 14.3531 39.5676 14.1201 39.3245 13.9364C39.0813 13.7526 38.8022 13.6222 38.5052 13.5538C36.9015 13.1541 35.2353 13.0705 33.5997 13.3077C34.2231 10.2069 33.7474 7.77875 33.2716 6.335C33.1005 5.79295 32.7331 5.33433 32.2414 5.04905C31.7498 4.76377 31.1693 4.67239 30.6138 4.79282C29.0092 5.14811 27.4848 5.79905 26.1185 6.71235C25.0867 4.40601 23.4967 2.39305 21.4919 0.855316C21.0933 0.559633 20.6101 0.400002 20.1138 0.400002C19.6174 0.400002 19.1343 0.559633 18.7356 0.855316C16.7309 2.39305 15.1408 4.40601 14.1091 6.71235C12.7428 5.79905 11.2184 5.14811 9.61377 4.79282C9.05825 4.67239 8.47777 4.76377 7.98612 5.04905C7.49447 5.33433 7.12708 5.79295 6.95596 6.335C6.48018 7.77875 6.00439 10.2069 6.62783 13.3077C4.9922 13.0705 3.32604 13.1541 1.72236 13.5538C1.42539 13.6222 1.1462 13.7526 0.903069 13.9364C0.659936 14.1201 0.458327 14.3531 0.311425 14.6202C0.158049 14.8827 0.0587181 15.1732 0.0192731 15.4747C-0.0201719 15.7762 0.0010659 16.0825 0.0817373 16.3756C0.655956 18.41 2.39502 22.2655 7.66143 25.3006C12.9278 28.3358 17.6036 28.3522 20.1138 28.3522C22.6239 28.3522 27.2997 28.3522 32.5661 25.3006C37.8325 22.2491 39.5716 18.41 40.1458 16.3756C40.2265 16.0825 40.2477 15.7762 40.2083 15.4747C40.1688 15.1732 40.0695 14.8827 39.9161 14.6202ZM31.0239 6.71235C31.1041 6.69678 31.1873 6.7117 31.257 6.75418C31.3268 6.79666 31.3783 6.86364 31.4013 6.94203C31.8771 8.36938 32.32 10.9123 31.3521 14.1936C31.3333 14.2408 31.3222 14.2906 31.3192 14.3413C30.9153 15.5989 30.3762 16.8091 29.7114 17.9506C28.59 19.8769 27.16 21.6061 25.4786 23.0694C26.6927 20.9202 27.6606 18.0163 27.6606 14.2428C27.6705 12.3312 27.394 10.4288 26.8403 8.59907C28.0955 7.69819 29.5178 7.05676 31.0239 6.71235ZM19.9169 2.43032C19.9737 2.38772 20.0428 2.36469 20.1138 2.36469C20.1848 2.36469 20.2538 2.38772 20.3106 2.43032C21.9349 3.64438 25.6919 7.20453 25.6919 14.2428C25.6919 21.6748 21.5575 25.2022 20.1138 26.203C18.7028 25.2022 14.5356 21.6256 14.5356 14.2428C14.5356 7.20453 18.2927 3.64438 19.9169 2.43032ZM8.82627 6.94203C8.84928 6.86364 8.90071 6.79666 8.9705 6.75418C9.04029 6.7117 9.12341 6.69678 9.20361 6.71235C10.7097 7.05676 12.132 7.69819 13.3872 8.59907C12.8335 10.4288 12.557 12.3312 12.5669 14.2428C12.5669 18.0163 13.5349 20.9202 14.7489 23.0694C13.0675 21.6061 11.6376 19.8769 10.5161 17.9506C9.84765 16.811 9.30838 15.6004 8.9083 14.3413C8.90531 14.2906 8.89423 14.2408 8.87549 14.1936C7.90752 10.9123 8.35049 8.36938 8.82627 6.94203ZM1.98486 15.8506C1.96261 15.7691 1.96839 15.6824 2.00127 15.6045C2.02235 15.5679 2.05067 15.5358 2.08452 15.5105C2.11836 15.4851 2.15702 15.4668 2.19814 15.4569C3.28096 15.178 4.98721 14.9647 7.18564 15.3913C7.60475 16.6248 8.14899 17.8123 8.80986 18.935C10.4437 21.7595 12.6785 24.1903 15.356 26.0553C12.9915 25.6466 10.7191 24.8187 8.6458 23.6108C3.97002 20.9038 2.46064 17.5897 1.98486 15.8506ZM38.2427 15.8506C37.7669 17.5897 36.2575 20.9038 31.5817 23.6108C29.5084 24.8187 27.236 25.6466 24.8716 26.0553C27.549 24.1903 29.7838 21.7595 31.4177 18.935C32.0785 17.8123 32.6228 16.6248 33.0419 15.3913C35.2403 14.9647 36.9466 15.178 38.0294 15.4569C38.0705 15.4668 38.1092 15.4851 38.143 15.5105C38.1769 15.5358 38.2052 15.5679 38.2263 15.6045C38.2591 15.6824 38.2649 15.7691 38.2427 15.8506Z" fill="#FF4A6C"/>
</svg>
