<svg width="198" height="162" viewBox="0 0 198 162" fill="none" xmlns="http://www.w3.org/2000/svg">
<path fill-rule="evenodd" clip-rule="evenodd" d="M99 0.989241C97.7286 0.989241 96.6977 2.019 96.6977 3.28924L96.6977 159.689C96.6977 160.96 97.7286 161.989 99 161.989C100.271 161.989 101.302 160.96 101.302 159.689L101.302 3.28924C101.302 2.019 100.271 0.98924 99 0.989241ZM82.8837 23.9892C81.6123 23.9892 80.5814 25.0189 80.5814 26.2892L80.5814 159.689C80.5814 160.96 81.6123 161.989 82.8838 161.989C84.1552 161.989 85.1861 160.96 85.1861 159.689L85.1861 26.2892C85.1861 25.0189 84.1552 23.9892 82.8837 23.9892ZM66.7675 46.9892C65.496 46.9892 64.4651 48.0189 64.4651 49.2892L64.4651 159.689C64.4651 160.96 65.496 161.989 66.7675 161.989C68.0389 161.989 69.0698 160.96 69.0698 159.689L69.0698 49.2892C69.0698 48.0189 68.0389 46.9892 66.7675 46.9892ZM50.6512 69.9892C49.3797 69.9892 48.3489 71.0189 48.3489 72.2892L48.3489 159.689C48.3489 160.96 49.3797 161.989 50.6512 161.989C51.9226 161.989 52.9535 160.96 52.9535 159.689L52.9535 72.2892C52.9535 71.0189 51.9226 69.9892 50.6512 69.9892ZM34.5349 92.9892C33.2635 92.9892 32.2326 94.0189 32.2326 95.2892L32.2326 159.689C32.2326 160.96 33.2635 161.989 34.5349 161.989C35.8064 161.989 36.8372 160.96 36.8372 159.689L36.8372 95.2892C36.8372 94.0189 35.8064 92.9892 34.5349 92.9892ZM18.4186 115.989C17.1472 115.989 16.1163 117.019 16.1163 118.289L16.1163 159.689C16.1163 160.96 17.1472 161.989 18.4186 161.989C19.6901 161.989 20.721 160.96 20.721 159.689L20.721 118.289C20.721 117.019 19.6901 115.989 18.4186 115.989ZM2.45308e-05 141.289C2.43087e-05 140.019 1.0309 138.989 2.30235 138.989C3.5738 138.989 4.60468 140.019 4.60468 141.289L4.60468 159.689C4.60468 160.96 3.5738 161.989 2.30235 161.989C1.0309 161.989 2.79701e-05 160.96 2.7748e-05 159.689L2.45308e-05 141.289ZM198 141.289C198 140.019 196.969 138.989 195.698 138.989C194.426 138.989 193.395 140.019 193.395 141.289L193.395 159.689C193.395 160.96 194.426 161.989 195.698 161.989C196.969 161.989 198 160.96 198 159.689L198 141.289ZM181.884 118.289C181.884 117.019 180.853 115.989 179.581 115.989C178.31 115.989 177.279 117.019 177.279 118.289L177.279 159.689C177.279 160.96 178.31 161.989 179.581 161.989C180.853 161.989 181.884 160.96 181.884 159.689L181.884 118.289ZM165.767 95.2892C165.767 94.0189 164.737 92.9892 163.465 92.9892C162.194 92.9892 161.163 94.0189 161.163 95.2892L161.163 159.689C161.163 160.96 162.194 161.989 163.465 161.989C164.737 161.989 165.767 160.96 165.767 159.689L165.767 95.2892ZM149.651 72.2892C149.651 71.0189 148.62 69.9892 147.349 69.9892C146.077 69.9892 145.047 71.0189 145.047 72.2892L145.047 159.689C145.047 160.96 146.077 161.989 147.349 161.989C148.62 161.989 149.651 160.96 149.651 159.689L149.651 72.2892ZM133.535 49.2892C133.535 48.0189 132.504 46.9892 131.233 46.9892C129.961 46.9892 128.93 48.0189 128.93 49.2892L128.93 159.689C128.93 160.96 129.961 161.989 131.233 161.989C132.504 161.989 133.535 160.96 133.535 159.689L133.535 49.2892ZM117.419 26.2892C117.419 25.0189 116.388 23.9892 115.116 23.9892C113.845 23.9892 112.814 25.0189 112.814 26.2892L112.814 159.689C112.814 160.96 113.845 161.989 115.116 161.989C116.388 161.989 117.419 160.96 117.419 159.689L117.419 26.2892Z" fill="#F3D1BF"/>
</svg>
