<svg width="15" height="15" viewBox="0 0 15 15" fill="none" xmlns="http://www.w3.org/2000/svg">
<path d="M5.54059 1.1001H1.84059C1.64433 1.1001 1.4561 1.17806 1.31733 1.31684C1.17855 1.45562 1.10059 1.64384 1.10059 1.8401V5.5401C1.10059 5.73636 1.17855 5.92458 1.31733 6.06336C1.4561 6.20213 1.64433 6.2801 1.84059 6.2801H5.54059C5.73685 6.2801 5.92507 6.20213 6.06384 6.06336C6.20262 5.92458 6.28059 5.73636 6.28059 5.5401V1.8401C6.28059 1.64384 6.20262 1.45562 6.06384 1.31684C5.92507 1.17806 5.73685 1.1001 5.54059 1.1001V1.1001Z" stroke="#FF4A6C" stroke-width="1.11" stroke-linejoin="round"/>
<path d="M5.54059 9.24023H1.84059C1.64433 9.24023 1.4561 9.3182 1.31733 9.45698C1.17855 9.59575 1.10059 9.78397 1.10059 9.98023V13.6802C1.10059 13.8765 1.17855 14.0647 1.31733 14.2035C1.4561 14.3423 1.64433 14.4202 1.84059 14.4202H5.54059C5.73685 14.4202 5.92507 14.3423 6.06384 14.2035C6.20262 14.0647 6.28059 13.8765 6.28059 13.6802V9.98023C6.28059 9.78397 6.20262 9.59575 6.06384 9.45698C5.92507 9.3182 5.73685 9.24023 5.54059 9.24023Z" stroke="#FF4A6C" stroke-width="1.11" stroke-linejoin="round"/>
<path d="M13.6802 1.1001H9.98023C9.78397 1.1001 9.59575 1.17806 9.45698 1.31684C9.3182 1.45562 9.24023 1.64384 9.24023 1.8401V5.5401C9.24023 5.73636 9.3182 5.92458 9.45698 6.06336C9.59575 6.20213 9.78397 6.2801 9.98023 6.2801H13.6802C13.8765 6.2801 14.0647 6.20213 14.2035 6.06336C14.3423 5.92458 14.4202 5.73636 14.4202 5.5401V1.8401C14.4202 1.64384 14.3423 1.45562 14.2035 1.31684C14.0647 1.17806 13.8765 1.1001 13.6802 1.1001V1.1001Z" stroke="#FF4A6C" stroke-width="1.11" stroke-linejoin="round"/>
<path d="M13.6802 9.24023H9.98023C9.78397 9.24023 9.59575 9.3182 9.45698 9.45698C9.3182 9.59575 9.24023 9.78397 9.24023 9.98023V13.6802C9.24023 13.8765 9.3182 14.0647 9.45698 14.2035C9.59575 14.3423 9.78397 14.4202 9.98023 14.4202H13.6802C13.8765 14.4202 14.0647 14.3423 14.2035 14.2035C14.3423 14.0647 14.4202 13.8765 14.4202 13.6802V9.98023C14.4202 9.78397 14.3423 9.59575 14.2035 9.45698C14.0647 9.3182 13.8765 9.24023 13.6802 9.24023Z" stroke="#FF4A6C" stroke-width="1.11" stroke-linejoin="round"/>
</svg>
