<svg width="17" height="17" viewBox="0 0 17 17" fill="none" xmlns="http://www.w3.org/2000/svg">
<path d="M14.0498 16.8248H11.9686C11.7986 16.8248 11.6346 16.7624 11.5076 16.6495C11.3807 16.5366 11.2995 16.381 11.2797 16.2122L11.2748 16.1311V10.5811C11.2748 10.4111 11.3372 10.2471 11.4501 10.1201C11.563 9.99317 11.7186 9.91204 11.8874 9.89216L11.9686 9.88731H15.7842V8.4998C15.7842 4.47675 12.5229 1.21543 8.4998 1.21543C4.47675 1.21543 1.21543 4.47675 1.21543 8.4998V9.88731H5.03105C5.21505 9.88731 5.39151 9.9604 5.52161 10.0905C5.65171 10.2206 5.7248 10.3971 5.7248 10.5811V16.1311C5.7248 16.315 5.65171 16.4915 5.52161 16.6216C5.39151 16.7517 5.21505 16.8248 5.03105 16.8248H2.9498C2.21383 16.8248 1.508 16.5324 0.987583 16.012C0.46717 15.4916 0.174805 14.7858 0.174805 14.0498V8.4998C0.174805 3.90232 3.90232 0.174805 8.4998 0.174805C13.0973 0.174805 16.8248 3.90232 16.8248 8.4998V14.0498C16.8248 14.7618 16.5512 15.4465 16.0605 15.9623C15.5698 16.4782 14.8996 16.7857 14.1886 16.8213L14.0498 16.8248H11.9686H14.0498ZM4.68418 10.9279H1.21543V14.0498C1.21543 14.5098 1.39816 14.9509 1.72342 15.2762C2.04867 15.6015 2.48982 15.7842 2.9498 15.7842H4.68418V10.9279ZM15.7842 10.9279H12.3154V15.7842H14.0498C14.5098 15.7842 14.9509 15.6015 15.2762 15.2762C15.6015 14.9509 15.7842 14.5098 15.7842 14.0498V10.9279Z" fill="#18191F"/>
</svg>
