<svg width="17" height="17" viewBox="0 0 17 17" fill="none" xmlns="http://www.w3.org/2000/svg">
<path d="M1.21602 4.85771V15.7843H12.1426V4.85771H1.21602ZM0.608984 3.64365H12.7496C12.9106 3.64365 13.065 3.70761 13.1788 3.82145C13.2927 3.93529 13.3566 4.08969 13.3566 4.25068V16.3913C13.3566 16.5523 13.2927 16.7067 13.1788 16.8205C13.065 16.9344 12.9106 16.9983 12.7496 16.9983H0.608984C0.44799 16.9983 0.293589 16.9344 0.179748 16.8205C0.065908 16.7067 0.00195313 16.5523 0.00195312 16.3913V4.25068C0.00195312 4.08969 0.065908 3.93529 0.179748 3.82145C0.293589 3.70761 0.44799 3.64365 0.608984 3.64365ZM16.9988 0.608496V13.9632C16.9988 14.1242 16.9349 14.2786 16.821 14.3924C16.7072 14.5063 16.5528 14.5702 16.3918 14.5702H14.5707V13.3562H15.7848V1.21553H6.07227V2.42959H4.8582V0.608496C4.8582 0.447501 4.92216 0.293101 5.036 0.17926C5.14984 0.0654197 5.30424 0.00146484 5.46523 0.00146484H16.3918C16.5528 0.00146484 16.7072 0.0654197 16.821 0.17926C16.9349 0.293101 16.9988 0.447501 16.9988 0.608496ZM3.64414 11.5351H9.71445V12.7491H3.64414V11.5351ZM3.64414 7.89287H9.71445V9.10693H3.64414V7.89287Z" fill="#18191F"/>
</svg>
