<svg width="17" height="18" viewBox="0 0 17 18" fill="none" xmlns="http://www.w3.org/2000/svg">
<path d="M8.49941 5.62627C7.85543 5.62627 7.23783 5.88209 6.78247 6.33745C6.32711 6.79281 6.07129 7.41042 6.07129 8.05439V15.57C6.07129 16.214 6.32711 16.8316 6.78247 17.287C7.23783 17.7423 7.85543 17.9981 8.49941 17.9981C9.14339 17.9981 9.761 17.7423 10.2164 17.287C10.6717 16.8316 10.9275 16.214 10.9275 15.57V8.05439C10.9275 7.41042 10.6717 6.79281 10.2164 6.33745C9.761 5.88209 9.14339 5.62627 8.49941 5.62627ZM9.71348 8.05439V15.57C9.71348 15.892 9.58557 16.2008 9.35789 16.4285C9.13021 16.6562 8.8214 16.7841 8.49941 16.7841C8.17743 16.7841 7.86862 16.6562 7.64094 16.4285C7.41326 16.2008 7.28535 15.892 7.28535 15.57V8.05439C7.28535 7.73241 7.41326 7.4236 7.64094 7.19592C7.86862 6.96824 8.17743 6.84033 8.49941 6.84033C8.8214 6.84033 9.13021 6.96824 9.35789 7.19592C9.58557 7.4236 9.71348 7.73241 9.71348 8.05439ZM2.4291 3.66064C1.78512 3.66064 1.16752 3.91646 0.712158 4.37183C0.256796 4.82719 0.000976563 5.44479 0.000976562 6.08877V15.57C0.000976563 16.214 0.256796 16.8316 0.712158 17.287C1.16752 17.7423 1.78512 17.9981 2.4291 17.9981C3.07308 17.9981 3.69068 17.7423 4.14605 17.287C4.60141 16.8316 4.85723 16.214 4.85723 15.57V6.08877C4.85723 5.44479 4.60141 4.82719 4.14605 4.37183C3.69068 3.91646 3.07308 3.66064 2.4291 3.66064ZM3.64316 15.57C3.64316 15.892 3.51525 16.2008 3.28757 16.4285C3.05989 16.6562 2.75109 16.7841 2.4291 16.7841C2.10711 16.7841 1.79831 16.6562 1.57063 16.4285C1.34295 16.2008 1.21504 15.892 1.21504 15.57V6.08877C1.21504 5.76678 1.34295 5.45798 1.57063 5.2303C1.79831 5.00262 2.10711 4.87471 2.4291 4.87471C2.75109 4.87471 3.05989 5.00262 3.28757 5.2303C3.51525 5.45798 3.64316 5.76678 3.64316 6.08877V15.57ZM12.1416 3.19814C12.1416 2.55417 12.3974 1.93656 12.8528 1.4812C13.3081 1.02584 13.9257 0.77002 14.5697 0.77002C15.2137 0.77002 15.8313 1.02584 16.2867 1.4812C16.742 1.93656 16.9979 2.55417 16.9979 3.19814V15.57C16.9979 16.214 16.742 16.8316 16.2867 17.287C15.8313 17.7423 15.2137 17.9981 14.5697 17.9981C13.9257 17.9981 13.3081 17.7423 12.8528 17.287C12.3974 16.8316 12.1416 16.214 12.1416 15.57V3.19814ZM15.7838 3.19814C15.7838 2.87616 15.6559 2.56735 15.4282 2.33967C15.2005 2.11199 14.8917 1.98408 14.5697 1.98408C14.2477 1.98408 13.9389 2.11199 13.7113 2.33967C13.4836 2.56735 13.3557 2.87616 13.3557 3.19814V15.57C13.3557 15.892 13.4836 16.2008 13.7113 16.4285C13.9389 16.6562 14.2477 16.7841 14.5697 16.7841C14.8917 16.7841 15.2005 16.6562 15.4282 16.4285C15.6559 16.2008 15.7838 15.892 15.7838 15.57V3.19814Z" fill="#18191F"/>
</svg>
