<svg width="17" height="13" viewBox="0 0 17 13" fill="none" xmlns="http://www.w3.org/2000/svg">
<path d="M11.5355 12.5703H1.21602C0.894026 12.5703 0.585225 12.4424 0.357544 12.2147C0.129863 11.987 0.00195313 11.6782 0.00195312 11.3562V1.64375C0.00195312 1.32176 0.129863 1.01296 0.357544 0.785278C0.585225 0.557597 0.894026 0.429688 1.21602 0.429688H11.5355C11.8575 0.429688 12.1663 0.557597 12.394 0.785278C12.6217 1.01296 12.7496 1.32176 12.7496 1.64375V4.1083L16.0397 1.75909C16.1303 1.69458 16.2369 1.6562 16.3478 1.64814C16.4588 1.64009 16.5698 1.66266 16.6687 1.7134C16.7677 1.76413 16.8508 1.84109 16.909 1.93586C16.9673 2.03062 16.9983 2.13956 16.9988 2.25078V10.7492C16.9983 10.8604 16.9673 10.9694 16.909 11.0641C16.8508 11.1589 16.7677 11.2359 16.6687 11.2866C16.5698 11.3373 16.4588 11.3599 16.3478 11.3519C16.2369 11.3438 16.1303 11.3054 16.0397 11.2409L12.7496 8.8917V11.3562C12.7496 11.6782 12.6217 11.987 12.394 12.2147C12.1663 12.4424 11.8575 12.5703 11.5355 12.5703ZM1.21602 1.64375V11.3562H11.5355V7.71406C11.5361 7.60284 11.5671 7.49391 11.6253 7.39914C11.6835 7.30437 11.7667 7.22742 11.8656 7.17668C11.9646 7.12594 12.0756 7.10337 12.1865 7.11142C12.2975 7.11948 12.4041 7.15786 12.4947 7.22237L15.7848 9.57158V3.42842L12.4947 5.77763C12.4041 5.84214 12.2975 5.88052 12.1865 5.88858C12.0756 5.89663 11.9646 5.87406 11.8656 5.82332C11.7667 5.77258 11.6835 5.69563 11.6253 5.60086C11.5671 5.50609 11.5361 5.39716 11.5355 5.28594V1.64375H1.21602Z" fill="#18191F"/>
</svg>
