<svg width="19" height="19" viewBox="0 0 19 19" fill="none" xmlns="http://www.w3.org/2000/svg">
<path d="M18.3012 5.70029C18.3075 5.57324 18.2871 5.44629 18.2414 5.32759C18.1956 5.2089 18.1255 5.10108 18.0357 5.01108L14.0579 1.03332C13.968 0.943359 13.8602 0.873247 13.7415 0.827503C13.6228 0.781758 13.4958 0.761397 13.3687 0.767731C13.2417 0.774065 13.1173 0.806954 13.0038 0.864278C12.8902 0.921601 12.7899 1.00209 12.7093 1.10055L9.29722 5.27093L4.35989 6.27686C4.18885 6.31123 4.02937 6.38855 3.89646 6.50156C3.76355 6.61456 3.66158 6.75953 3.60015 6.92281L0.466391 15.1847C0.395944 15.3708 0.380684 15.5733 0.422439 15.7679C0.464195 15.9625 0.561194 16.1409 0.701805 16.2818L2.72288 18.3028C2.8637 18.4435 3.0421 18.5405 3.23668 18.5822C3.43127 18.624 3.63377 18.6088 3.8199 18.5383L12.0854 15.4032C12.2463 15.3425 12.3895 15.2424 12.5018 15.1122C12.6142 14.9819 12.6921 14.8256 12.7285 14.6575L13.7946 9.77468L17.9685 6.35964C18.0669 6.27901 18.1473 6.1787 18.2046 6.06515C18.2619 5.9516 18.2948 5.82732 18.3012 5.70029ZM11.5632 14.3027L3.49866 17.3617L3.00006 16.8631L6.76973 13.0934C7.2152 13.3436 7.73587 13.4251 8.23651 13.323C8.73714 13.2209 9.18429 12.942 9.49615 12.5372C9.80802 12.1325 9.96377 11.629 9.93492 11.1189C9.90607 10.6088 9.69454 10.1261 9.33902 9.7591C8.98351 9.39212 8.50776 9.16539 7.9988 9.12036C7.48985 9.07534 6.98169 9.21504 6.56727 9.51391C6.15285 9.81279 5.85988 10.2509 5.74192 10.748C5.62396 11.2451 5.68891 11.7681 5.92489 12.2213L2.14157 16.0046L1.64293 15.506L4.69994 7.44657L9.43164 6.48252L12.5826 9.63344L11.5632 14.3027ZM6.89853 11.2412C6.89853 11.0611 6.95193 10.8851 7.05199 10.7354C7.15204 10.5856 7.29425 10.4689 7.46063 10.4C7.62701 10.3311 7.81009 10.313 7.98672 10.3482C8.16335 10.3833 8.32559 10.47 8.45293 10.5974C8.58028 10.7247 8.667 10.887 8.70213 11.0636C8.73726 11.2402 8.71923 11.4233 8.65032 11.5897C8.5814 11.7561 8.46469 11.8983 8.31495 11.9983C8.16521 12.0984 7.98917 12.1518 7.80908 12.1518C7.56759 12.1518 7.33599 12.0558 7.16523 11.8851C6.99446 11.7143 6.89853 11.4827 6.89853 11.2412ZM13.2872 8.62094L10.4479 5.78175L13.4366 2.12893L16.94 5.63238L13.2872 8.62094Z" fill="#18191F"/>
</svg>
