<svg width="32" height="32" viewBox="0 0 32 32" fill="none" xmlns="http://www.w3.org/2000/svg">
<path d="M16 28.5C19.3152 28.5 22.4946 27.183 24.8388 24.8388C27.183 22.4946 28.5 19.3152 28.5 16C28.5 12.6848 27.183 9.50537 24.8388 7.16117C22.4946 4.81696 19.3152 3.5 16 3.5C12.6848 3.5 9.50537 4.81696 7.16117 7.16117C4.81696 9.50537 3.5 12.6848 3.5 16C3.5 19.3152 4.81696 22.4946 7.16117 24.8388C9.50537 27.183 12.6848 28.5 16 28.5ZM16 5.0625C17.0266 5.0625 18.1984 5.98438 19.1594 8.04375C19.4984 8.77188 19.7938 9.60938 20.0328 10.5313H11.9672C12.2063 9.60938 12.5016 8.77188 12.8422 8.04375C13.8 5.98438 14.9719 5.0625 16 5.0625ZM11.425 7.38281C10.9636 8.39346 10.606 9.44835 10.3578 10.5313H6.525C7.84413 8.25136 9.93941 6.52211 12.4281 5.65938C12.0516 6.175 11.7156 6.75938 11.425 7.38281ZM10.05 12.0938C9.84778 13.386 9.74747 14.6921 9.75 16C9.75 17.3594 9.85469 18.675 10.0516 19.9063H5.78125C5.30473 18.6591 5.06111 17.3351 5.0625 16C5.0625 14.625 5.31719 13.3063 5.78125 12.0938H10.0516H10.05ZM10.3578 21.4688C10.6328 22.6297 10.9938 23.6906 11.425 24.6172C11.7156 25.2406 12.0516 25.825 12.4281 26.3406C9.93941 25.4779 7.84413 23.7486 6.525 21.4688H10.3594H10.3578ZM11.9672 21.4688H20.0328C19.8176 22.3229 19.5247 23.1555 19.1578 23.9563C18.2 26.0156 17.0281 26.9375 16 26.9375C14.9734 26.9375 13.8016 26.0156 12.8406 23.9563C12.4749 23.1554 12.183 22.3227 11.9688 21.4688H11.9672ZM20.3656 19.9063H11.6344C11.4173 18.6156 11.3096 17.3088 11.3125 16C11.3125 14.6203 11.4266 13.3047 11.6344 12.0938H20.3656C20.5734 13.3047 20.6875 14.6203 20.6875 16C20.6875 17.3797 20.5734 18.6953 20.3656 19.9063ZM21.6422 21.4688H25.475C24.1559 23.7486 22.0606 25.4779 19.5719 26.3406C19.9484 25.825 20.2844 25.2406 20.575 24.6172C21.0063 23.6906 21.3672 22.6297 21.6422 21.4688ZM26.2203 19.9063H21.9484C22.1453 18.675 22.25 17.3594 22.25 16C22.25 14.6406 22.1453 13.325 21.9484 12.0938H26.2188C26.6828 13.3063 26.9375 14.625 26.9375 16C26.9375 17.375 26.6828 18.6938 26.2188 19.9063H26.2203ZM19.5719 5.65938C22.0607 6.52198 24.156 8.25127 25.475 10.5313H21.6406C21.3924 9.44836 21.0348 8.39347 20.5734 7.38281C20.2952 6.77744 19.9593 6.20029 19.5703 5.65938H19.5719Z" fill="#FF4A6C"/>
</svg>
