<svg width="123" height="17" viewBox="0 0 123 17" fill="none" xmlns="http://www.w3.org/2000/svg">
<g clip-path="url(#clip0_336_3239)">
<path d="M8.16645 8.83314C10.0458 8.83314 11.5692 7.30967 11.5692 5.43037C11.5692 3.55106 10.0458 2.02759 8.16645 2.02759C6.28715 2.02759 4.76367 3.55106 4.76367 5.43037C4.76367 7.30967 6.28715 8.83314 8.16645 8.83314Z" stroke="#12A35C" stroke-width="1.36111"/>
<path d="M11.5697 10.1943H11.8093C12.3068 10.1944 12.7872 10.3762 13.1601 10.7056C13.533 11.0349 13.7729 11.4891 13.8346 11.9828L14.1007 14.1088C14.1246 14.3004 14.1075 14.4948 14.0506 14.6792C13.9936 14.8636 13.8981 15.0338 13.7704 15.1785C13.6426 15.3232 13.4855 15.4391 13.3096 15.5184C13.1336 15.5977 12.9428 15.6388 12.7498 15.6387H3.58406C3.39105 15.6388 3.20023 15.5977 3.02427 15.5184C2.84831 15.4391 2.69124 15.3232 2.56349 15.1785C2.43573 15.0338 2.3402 14.8636 2.28325 14.6792C2.2263 14.4948 2.20923 14.3004 2.23316 14.1088L2.49858 11.9828C2.5603 11.4888 2.80035 11.0345 3.17357 10.7051C3.5468 10.3758 4.0275 10.1941 4.52527 10.1943H4.76415" stroke="#12A35C" stroke-width="1.36111" stroke-linecap="round" stroke-linejoin="round"/>
<circle cx="8.16645" cy="5.20362" r="3.40278" fill="#12A35C"/>
<path d="M13.2707 10.9883L11.2291 9.6272L8.16656 10.648L4.76378 9.6272L3.74295 10.648L2.38184 13.03L2.72211 15.4119H12.9304L13.9513 14.7314L13.2707 10.9883Z" fill="#12A35C"/>
</g>
<g clip-path="url(#clip1_336_3239)">
<path d="M29.4995 8.83314C31.3788 8.83314 32.9022 7.30967 32.9022 5.43037C32.9022 3.55106 31.3788 2.02759 29.4995 2.02759C27.6202 2.02759 26.0967 3.55106 26.0967 5.43037C26.0967 7.30967 27.6202 8.83314 29.4995 8.83314Z" stroke="#12A35C" stroke-width="1.36111"/>
<path d="M32.9027 10.1943H33.1423C33.6398 10.1944 34.1202 10.3762 34.4931 10.7056C34.8661 11.0349 35.1059 11.4891 35.1676 11.9828L35.4337 14.1088C35.4576 14.3004 35.4406 14.4948 35.3836 14.6792C35.3267 14.8636 35.2311 15.0338 35.1034 15.1785C34.9756 15.3232 34.8185 15.4391 34.6426 15.5184C34.4666 15.5977 34.2758 15.6388 34.0828 15.6387H24.9171C24.7241 15.6388 24.5332 15.5977 24.3573 15.5184C24.1813 15.4391 24.0243 15.3232 23.8965 15.1785C23.7687 15.0338 23.6732 14.8636 23.6163 14.6792C23.5593 14.4948 23.5422 14.3004 23.5662 14.1088L23.8316 11.9828C23.8933 11.4888 24.1334 11.0345 24.5066 10.7051C24.8798 10.3758 25.3605 10.1941 25.8583 10.1943H26.0972" stroke="#12A35C" stroke-width="1.36111" stroke-linecap="round" stroke-linejoin="round"/>
<circle cx="29.4995" cy="5.20362" r="3.40278" fill="#12A35C"/>
<path d="M34.6037 10.9883L32.5621 9.6272L29.4996 10.648L26.0968 9.6272L25.076 10.648L23.7148 13.03L24.0551 15.4119H34.2635L35.2843 14.7314L34.6037 10.9883Z" fill="#12A35C"/>
</g>
<g clip-path="url(#clip2_336_3239)">
<path d="M50.8334 8.83314C52.7127 8.83314 54.2362 7.30967 54.2362 5.43037C54.2362 3.55106 52.7127 2.02759 50.8334 2.02759C48.9541 2.02759 47.4307 3.55106 47.4307 5.43037C47.4307 7.30967 48.9541 8.83314 50.8334 8.83314Z" stroke="#12A35C" stroke-width="1.36111"/>
<path d="M54.2367 10.1943H54.4763C54.9738 10.1944 55.4542 10.3762 55.8271 10.7056C56.2 11.0349 56.4399 11.4891 56.5016 11.9828L56.7677 14.1088C56.7916 14.3004 56.7745 14.4948 56.7176 14.6792C56.6606 14.8636 56.5651 15.0338 56.4374 15.1785C56.3096 15.3232 56.1525 15.4391 55.9766 15.5184C55.8006 15.5977 55.6098 15.6388 55.4168 15.6387H46.2511C46.058 15.6388 45.8672 15.5977 45.6913 15.5184C45.5153 15.4391 45.3582 15.3232 45.2305 15.1785C45.1027 15.0338 45.0072 14.8636 44.9502 14.6792C44.8933 14.4948 44.8762 14.3004 44.9002 14.1088L45.1656 11.9828C45.2273 11.4888 45.4673 11.0345 45.8406 10.7051C46.2138 10.3758 46.6945 10.1941 47.1923 10.1943H47.4311" stroke="#12A35C" stroke-width="1.36111" stroke-linecap="round" stroke-linejoin="round"/>
<circle cx="50.8334" cy="5.20362" r="3.40278" fill="#12A35C"/>
<path d="M55.9377 10.9883L53.8961 9.6272L50.8336 10.648L47.4308 9.6272L46.4099 10.648L45.0488 13.03L45.3891 15.4119H55.5974L56.6183 14.7314L55.9377 10.9883Z" fill="#12A35C"/>
</g>
<g clip-path="url(#clip3_336_3239)">
<path d="M72.1664 8.83314C74.0458 8.83314 75.5692 7.30967 75.5692 5.43037C75.5692 3.55106 74.0458 2.02759 72.1664 2.02759C70.2871 2.02759 68.7637 3.55106 68.7637 5.43037C68.7637 7.30967 70.2871 8.83314 72.1664 8.83314Z" stroke="#555555" stroke-opacity="0.88" stroke-width="1.36111"/>
<path d="M75.5697 10.1943H75.8093C76.3068 10.1944 76.7872 10.3762 77.1601 10.7056C77.533 11.0349 77.7729 11.4891 77.8346 11.9828L78.1007 14.1088C78.1246 14.3004 78.1075 14.4948 78.0506 14.6792C77.9936 14.8636 77.8981 15.0338 77.7704 15.1785C77.6426 15.3232 77.4855 15.4391 77.3096 15.5184C77.1336 15.5977 76.9428 15.6388 76.7498 15.6387H67.5841C67.391 15.6388 67.2002 15.5977 67.0243 15.5184C66.8483 15.4391 66.6912 15.3232 66.5635 15.1785C66.4357 15.0338 66.3402 14.8636 66.2833 14.6792C66.2263 14.4948 66.2092 14.3004 66.2332 14.1088L66.4986 11.9828C66.5603 11.4888 66.8003 11.0345 67.1736 10.7051C67.5468 10.3758 68.0275 10.1941 68.5253 10.1943H68.7641" stroke="#555555" stroke-opacity="0.88" stroke-width="1.36111" stroke-linecap="round" stroke-linejoin="round"/>
</g>
<g clip-path="url(#clip4_336_3239)">
<path d="M93.4995 8.83314C95.3788 8.83314 96.9022 7.30967 96.9022 5.43037C96.9022 3.55106 95.3788 2.02759 93.4995 2.02759C91.6202 2.02759 90.0967 3.55106 90.0967 5.43037C90.0967 7.30967 91.6202 8.83314 93.4995 8.83314Z" stroke="#555555" stroke-opacity="0.88" stroke-width="1.36111"/>
<path d="M96.9027 10.1943H97.1423C97.6398 10.1944 98.1202 10.3762 98.4931 10.7056C98.8661 11.0349 99.1059 11.4891 99.1676 11.9828L99.4337 14.1088C99.4576 14.3004 99.4406 14.4948 99.3836 14.6792C99.3267 14.8636 99.2311 15.0338 99.1034 15.1785C98.9756 15.3232 98.8185 15.4391 98.6426 15.5184C98.4666 15.5977 98.2758 15.6388 98.0828 15.6387H88.9171C88.7241 15.6388 88.5332 15.5977 88.3573 15.5184C88.1813 15.4391 88.0243 15.3232 87.8965 15.1785C87.7687 15.0338 87.6732 14.8636 87.6163 14.6792C87.5593 14.4948 87.5422 14.3004 87.5662 14.1088L87.8316 11.9828C87.8933 11.4888 88.1334 11.0345 88.5066 10.7051C88.8798 10.3758 89.3605 10.1941 89.8583 10.1943H90.0972" stroke="#555555" stroke-opacity="0.88" stroke-width="1.36111" stroke-linecap="round" stroke-linejoin="round"/>
</g>
<g clip-path="url(#clip5_336_3239)">
<path d="M114.833 8.83314C116.713 8.83314 118.236 7.30967 118.236 5.43037C118.236 3.55106 116.713 2.02759 114.833 2.02759C112.954 2.02759 111.431 3.55106 111.431 5.43037C111.431 7.30967 112.954 8.83314 114.833 8.83314Z" stroke="#555555" stroke-opacity="0.88" stroke-width="1.36111"/>
<path d="M118.237 10.1943H118.476C118.974 10.1944 119.454 10.3762 119.827 10.7056C120.2 11.0349 120.44 11.4891 120.502 11.9828L120.768 14.1088C120.792 14.3004 120.775 14.4948 120.718 14.6792C120.661 14.8636 120.565 15.0338 120.437 15.1785C120.31 15.3232 120.153 15.4391 119.977 15.5184C119.801 15.5977 119.61 15.6388 119.417 15.6387H110.251C110.058 15.6388 109.867 15.5977 109.691 15.5184C109.515 15.4391 109.358 15.3232 109.23 15.1785C109.103 15.0338 109.007 14.8636 108.95 14.6792C108.893 14.4948 108.876 14.3004 108.9 14.1088L109.166 11.9828C109.227 11.4888 109.467 11.0345 109.841 10.7051C110.214 10.3758 110.694 10.1941 111.192 10.1943H111.431" stroke="#555555" stroke-opacity="0.88" stroke-width="1.36111" stroke-linecap="round" stroke-linejoin="round"/>
</g>
<defs>
<clipPath id="clip0_336_3239">
<rect width="16.3333" height="16.3333" fill="white" transform="translate(0 0.666504)"/>
</clipPath>
<clipPath id="clip1_336_3239">
<rect width="16.3333" height="16.3333" fill="white" transform="translate(21.333 0.666504)"/>
</clipPath>
<clipPath id="clip2_336_3239">
<rect width="16.3333" height="16.3333" fill="white" transform="translate(42.667 0.666504)"/>
</clipPath>
<clipPath id="clip3_336_3239">
<rect width="16.3333" height="16.3333" fill="white" transform="translate(64 0.666504)"/>
</clipPath>
<clipPath id="clip4_336_3239">
<rect width="16.3333" height="16.3333" fill="white" transform="translate(85.333 0.666504)"/>
</clipPath>
<clipPath id="clip5_336_3239">
<rect width="16.3333" height="16.3333" fill="white" transform="translate(106.667 0.666504)"/>
</clipPath>
</defs>
</svg>
